<svg width="1050" height="788" viewBox="0 0 1050 788" fill="none" xmlns="http://www.w3.org/2000/svg">
<path d="M326.288 642.614C386.4 642.614 446.512 642.614 506.625 642.614C566.541 642.614 626.456 642.614 686.306 642.614C720.169 642.614 754.097 642.614 787.959 642.614C789.206 642.614 789.206 640.644 787.959 640.644C727.847 640.644 667.734 640.644 607.622 640.644C547.706 640.644 487.791 640.644 427.941 640.644C394.078 640.644 360.15 640.644 326.288 640.644C325.041 640.644 325.041 642.614 326.288 642.614Z" fill="#FAA286"/>
<path d="M800.1 601.769C799.575 620.681 801.478 639.593 805.809 658.046C806.072 659.293 807.975 658.768 807.713 657.52C803.447 639.265 801.544 620.55 802.134 601.769C802.069 600.522 800.1 600.522 800.1 601.769Z" fill="#FAA286"/>
<path d="M878.259 603.28C880.097 620.747 878.981 638.411 874.978 655.485C874.716 656.732 876.553 657.258 876.881 656.01C880.95 638.74 882.131 620.944 880.228 603.28C880.097 602.032 878.128 602.032 878.259 603.28Z" fill="#FAA286"/>
<path d="M806.597 659.884C829.303 665.663 853.322 664.875 875.569 657.52C876.75 657.126 876.225 655.222 875.044 655.616C853.059 662.839 829.5 663.693 807.122 657.98C805.875 657.717 805.35 659.622 806.597 659.884Z" fill="#FAA286"/>
<path d="M801.019 602.689C826.547 608.139 852.994 608.008 878.456 602.36C879.703 602.098 879.178 600.193 877.931 600.456C852.797 606.038 826.678 606.103 801.544 600.784C800.297 600.522 799.772 602.426 801.019 602.689Z" fill="#FAA286"/>
<path d="M816.572 603.411C813.159 595.728 816.244 586.338 818.803 578.786C821.428 570.972 825.169 563.551 829.763 556.722C829.238 556.788 828.712 556.853 828.187 556.919C829.697 558.626 831.338 559.808 833.372 560.793C834.159 561.122 835.012 560.596 834.816 559.677C834.028 556.131 832.65 552.651 834.225 549.105C835.341 546.609 836.916 544.114 838.228 541.75C837.769 541.881 837.309 542.013 836.85 542.078C838.228 542.932 839.606 543.72 840.984 544.574C841.903 545.165 842.691 544.048 842.362 543.195C840.984 540.174 840.066 537.153 841.969 534.133C843.084 532.294 844.528 530.652 845.775 528.945C848.531 525.268 851.419 521.59 854.306 517.979C859.819 511.084 865.528 504.386 871.434 497.819C870.909 497.753 870.384 497.688 869.859 497.622C878.259 508.654 883.575 521.853 885.019 535.643C885.741 542.275 885.544 549.105 884.362 555.671C883.772 559.02 882.919 562.304 881.869 565.521C881.672 566.178 881.409 566.835 881.213 567.426C880.491 569.264 879.309 570.052 877.406 570.446C876.094 570.709 875.372 570.512 874.256 571.366C873.731 571.76 873.6 572.416 874.059 572.942C875.503 574.452 876.094 574.715 875.569 576.75C875.241 578.064 874.453 579.443 873.862 580.756C872.681 583.383 871.369 585.944 869.991 588.439C867.169 593.561 863.953 598.42 860.344 603.017C859.556 604.002 860.934 605.381 861.722 604.396C868.678 595.465 874.191 585.681 878.325 575.174C878.456 574.846 878.325 574.452 878.062 574.189C877.209 573.336 876.356 572.416 875.437 571.563C875.372 572.088 875.306 572.613 875.241 573.139C876.75 572.088 878.456 572.81 880.031 572.154C881.278 571.694 881.934 570.775 882.459 569.593C883.903 566.506 884.822 562.96 885.609 559.677C887.25 552.454 887.775 545.033 887.25 537.679C886.134 522.838 880.687 508.457 871.631 496.637C871.303 496.177 870.581 495.915 870.056 496.44C862.772 504.517 855.75 512.857 849.056 521.393C846.038 525.202 842.822 529.011 840.197 533.148C837.834 536.891 838.95 540.437 840.591 544.245C841.05 543.786 841.509 543.326 841.969 542.866C840.591 542.013 839.212 541.225 837.834 540.371C837.375 540.108 836.719 540.24 836.456 540.699C834.816 543.72 832.256 547.069 831.338 550.418C830.55 553.373 832.191 557.247 832.847 560.137C833.306 559.743 833.831 559.414 834.291 559.02C832.388 558.167 830.878 557.05 829.5 555.474C829.041 554.949 828.253 555.146 827.925 555.671C822.806 563.289 818.803 571.628 816.047 580.428C813.684 588.045 811.387 596.713 814.734 604.33C815.391 605.512 817.097 604.527 816.572 603.411Z" fill="#FAA286"/>
<path d="M869.991 512.725C867.366 542.472 847.022 566.309 838.556 594.283C838.163 595.531 840.066 595.991 840.459 594.809C848.925 566.638 869.334 542.735 871.959 512.725C872.091 511.412 870.056 511.478 869.991 512.725Z" fill="#FAA286"/>
<path d="M845.184 528.551C847.284 539.386 849.713 550.09 852.469 560.728C852.797 561.975 854.7 561.45 854.372 560.202C851.616 549.564 849.188 538.795 847.088 528.026C846.891 526.778 844.988 527.303 845.184 528.551Z" fill="#FAA286"/>
<path d="M867.366 535.512C873.075 531.375 877.997 526.45 882.263 520.737C883.05 519.752 881.344 518.767 880.556 519.752C876.553 525.136 871.828 529.864 866.381 533.804C865.397 534.592 866.381 536.3 867.366 535.512Z" fill="#FAA286"/>
<path d="M861.263 507.406C863.034 513.054 864.084 519.949 868.416 524.217C869.334 525.136 870.713 523.692 869.794 522.838C865.791 518.832 864.741 512.069 863.1 506.881C862.772 505.699 860.869 506.224 861.263 507.406Z" fill="#FAA286"/>
<path d="M812.634 602.886C808.631 599.734 806.203 595.334 804.169 590.737C801.872 585.353 799.903 579.837 798.131 574.255C794.784 563.551 792.356 552.519 790.912 541.422C787.959 518.176 790.322 494.667 787.5 471.355C786.909 471.552 786.253 471.684 785.662 471.881C793.012 488.429 810.206 498.344 824.513 508.194C824.381 507.735 824.25 507.275 824.184 506.815C822.216 509.639 820.247 512.463 818.278 515.286C817.819 515.943 818.409 516.797 819.131 516.797C821.691 516.797 823.922 516.468 826.35 515.615C825.956 515.483 825.628 515.286 825.234 515.155C827.663 518.898 830.091 522.641 832.519 526.384C832.584 525.99 832.65 525.596 832.65 525.202C831.469 526.318 830.484 527.566 829.5 528.945C829.172 529.405 829.5 530.324 830.091 530.39C835.472 531.178 837.375 536.3 838.753 540.896C839.147 542.078 841.05 541.619 840.656 540.371C839.016 535.183 836.653 529.339 830.616 528.485C830.812 528.945 831.009 529.47 831.206 529.93C832.059 528.617 832.913 527.697 834.028 526.647C834.356 526.384 834.422 525.793 834.159 525.465C831.731 521.722 829.303 517.979 826.875 514.236C826.678 513.907 826.219 513.645 825.759 513.776C823.528 514.498 821.362 514.892 819.066 514.827C819.328 515.352 819.656 515.812 819.919 516.337C821.888 513.513 823.856 510.69 825.825 507.866C826.153 507.406 825.891 506.815 825.497 506.487C811.453 496.834 794.588 487.181 787.369 470.896C786.975 470.042 785.4 470.436 785.531 471.421C788.419 495.586 785.859 520.014 789.272 544.114C790.912 555.737 793.603 567.163 797.344 578.261C800.363 587.257 803.512 598.223 811.191 604.33C812.241 605.053 813.619 603.674 812.634 602.886Z" fill="#FAA286"/>
<path d="M786.056 473.325C791.372 488.035 795.834 503.532 802.987 517.519C806.531 524.414 810.403 531.178 813.75 538.204C817.359 545.821 820.575 553.57 823.856 561.253C824.316 562.435 826.022 561.384 825.562 560.268C822.478 552.913 819.328 545.559 815.981 538.335C812.7 531.243 808.894 524.48 805.219 517.585C797.869 503.532 793.341 487.772 787.894 472.866C787.5 471.618 785.597 472.143 786.056 473.325Z" fill="#FAA286"/>
<path d="M788.55 523.232C795.637 524.086 803.381 524.48 808.763 529.799C809.681 530.718 811.059 529.273 810.141 528.42C804.366 522.772 796.162 522.247 788.55 521.328C787.303 521.131 787.303 523.101 788.55 523.232Z" fill="#FAA286"/>
<path d="M807.516 496.637C806.334 500.905 805.547 505.305 805.219 509.77C804.956 513.579 804.497 518.044 805.809 521.722C806.203 522.904 808.106 522.378 807.713 521.196C806.466 517.716 806.925 513.382 807.188 509.705C807.516 505.436 808.303 501.234 809.419 497.097C809.747 495.915 807.844 495.389 807.516 496.637Z" fill="#FAA286"/>
<path d="M793.012 559.02C798.131 559.152 803.053 559.217 808.041 560.596C812.963 561.975 817.819 563.42 822.741 564.865C823.987 565.193 824.513 563.289 823.266 562.96C818.016 561.45 812.831 559.808 807.516 558.429C802.725 557.182 797.934 557.247 793.012 557.116C791.766 556.985 791.766 558.955 793.012 559.02Z" fill="#FAA286"/>
<path d="M864.806 601.047C869.203 600.456 873.534 600.456 877.931 601.047C877.734 600.587 877.538 600.062 877.341 599.602C876.947 600.193 873.009 600.259 872.222 600.325C870.45 600.587 868.612 600.85 866.841 601.244C866.578 601.31 864.806 601.507 864.741 601.704C864.872 601.375 867.497 601.441 867.891 601.441C869.794 601.441 871.697 601.638 873.6 601.769C873.6 601.113 873.6 600.456 873.6 599.799C871.959 599.734 870.516 599.931 868.875 600.39C867.825 600.653 868.022 602.295 869.137 602.295C871.697 602.295 873.994 601.769 876.487 601.113C877.734 600.784 877.209 598.88 875.963 599.208C873.731 599.799 871.5 600.325 869.137 600.325C869.203 600.981 869.334 601.638 869.4 602.229C870.778 601.835 872.156 601.704 873.6 601.704C874.847 601.704 874.847 599.799 873.6 599.734C870.712 599.602 866.512 598.552 863.887 600.193C862.837 600.85 861.328 602.557 862.706 603.608C863.297 604.068 863.953 603.805 864.675 603.739C866.644 603.345 868.547 602.886 870.516 602.557C872.812 602.163 877.406 602.754 878.981 600.587C879.309 600.128 878.981 599.208 878.391 599.143C873.797 598.486 869.334 598.486 864.741 599.077C863.559 599.208 863.559 601.178 864.806 601.047Z" fill="#FAA286"/>
<path d="M801.872 602.295C802.791 602.032 803.709 601.835 804.628 601.769C805.087 601.769 805.481 601.704 805.941 601.769C806.137 601.769 807.056 601.704 807.122 601.769C807.056 601.441 806.925 601.113 806.859 600.784C806.859 600.85 806.794 600.916 806.794 600.916C807.188 600.719 807.581 600.456 807.975 600.259C807.909 600.259 807.844 600.259 807.844 600.259C808.041 600.456 808.303 600.719 808.5 600.916C808.5 600.85 808.5 600.784 808.434 600.784C808.106 599.537 806.269 600.062 806.531 601.31C806.531 601.375 806.531 601.441 806.597 601.441C806.662 601.769 806.991 602.032 807.253 602.098C807.319 602.098 807.384 602.098 807.384 602.098C807.909 602.229 808.369 601.966 808.566 601.441C808.566 601.375 808.631 601.31 808.631 601.31C808.762 600.981 808.631 600.587 808.369 600.325C807.647 599.602 806.072 599.734 805.153 599.734C803.841 599.734 802.463 599.996 801.216 600.325C800.166 600.719 800.691 602.623 801.872 602.295Z" fill="#FAA286"/>
<path d="M803.381 615.494C827.334 619.631 852.206 621.601 875.831 614.509C877.012 614.115 876.553 612.276 875.306 612.604C852.075 619.565 827.531 617.661 803.906 613.589C802.659 613.392 802.134 615.297 803.381 615.494Z" fill="#FAA286"/>
<path d="M885.872 642.483C927.938 642.483 970.069 642.483 1012.13 642.483C1013.38 642.483 1013.38 640.513 1012.13 640.513C970.069 640.513 927.938 640.513 885.872 640.513C884.559 640.513 884.559 642.483 885.872 642.483Z" fill="#FAA286"/>
<path d="M854.044 684.706C893.681 684.706 933.384 684.706 973.022 684.706C974.269 684.706 974.269 682.736 973.022 682.736C933.384 682.736 893.681 682.736 854.044 682.736C852.797 682.736 852.797 684.706 854.044 684.706Z" fill="#FAA286"/>
<path d="M872.091 684.509C867.366 688.449 862.641 692.324 857.981 696.264C856.997 697.052 858.375 698.431 859.359 697.643C864.084 693.703 868.809 689.828 873.469 685.888C874.453 685.1 873.009 683.656 872.091 684.509Z" fill="#FAA286"/>
<path d="M858.572 698.365C859.819 698.365 859.819 696.395 858.572 696.395C857.325 696.395 857.325 698.365 858.572 698.365Z" fill="#FAA286"/>
<path d="M878.588 696.395C838.622 696.395 798.656 696.395 758.691 696.395C757.444 696.395 757.444 698.365 758.691 698.365C798.656 698.365 838.622 698.365 878.588 698.365C879.834 698.365 879.834 696.395 878.588 696.395Z" fill="#FAA286"/>
<path d="M758.494 716.752C765.581 710.842 772.866 705.194 780.347 699.744C781.331 699.022 780.413 697.314 779.363 698.037C771.75 703.553 764.334 709.331 757.116 715.307C756.131 716.161 757.509 717.54 758.494 716.752Z" fill="#FAA286"/>
<path d="M161.044 680.898C207.375 680.898 253.706 680.898 300.038 680.898C313.163 680.898 326.287 680.898 339.412 680.898C340.659 680.898 340.659 678.928 339.412 678.928C293.081 678.928 246.75 678.928 200.419 678.928C187.294 678.928 174.169 678.928 161.044 678.928C159.797 678.928 159.797 680.898 161.044 680.898Z" fill="#FAA286"/>
<path d="M185.259 698.037C191.494 692.718 197.794 687.399 204.028 682.08C205.012 681.226 203.569 679.847 202.65 680.701C196.416 686.02 190.116 691.339 183.881 696.658C182.897 697.446 184.341 698.89 185.259 698.037Z" fill="#FAA286"/>
<path d="M162.684 699.941C205.734 699.941 248.784 699.941 291.834 699.941C293.081 699.941 293.081 697.971 291.834 697.971C248.784 697.971 205.734 697.971 162.684 697.971C161.438 697.971 161.438 699.941 162.684 699.941Z" fill="#FAA286"/>
<path d="M276.806 699.547C271.884 705.063 266.831 710.448 261.713 715.832C260.859 716.752 262.238 718.131 263.091 717.211C268.209 711.827 273.197 706.442 278.184 700.926C279.103 700.007 277.659 698.628 276.806 699.547Z" fill="#FAA286"/>
<path d="M243.206 718.984C281.072 718.984 318.872 718.984 356.737 718.984C357.984 718.984 357.984 717.014 356.737 717.014C318.872 717.014 281.072 717.014 243.206 717.014C241.959 717.014 241.959 718.984 243.206 718.984Z" fill="#FAA286"/>
<path d="M216.366 647.867C232.378 647.867 248.391 647.867 264.469 647.867C265.716 647.867 265.716 645.897 264.469 645.897C248.456 645.897 232.444 645.897 216.366 645.897C215.119 645.897 215.119 647.867 216.366 647.867Z" fill="#FAA286"/>
<path d="M276.609 654.303C281.531 654.303 286.519 654.303 291.441 654.303C292.687 654.303 292.687 652.333 291.441 652.333C286.519 652.333 281.531 652.333 276.609 652.333C275.297 652.333 275.297 654.303 276.609 654.303Z" fill="#FAA286"/>
<path d="M240.975 303.183C240.975 313.887 240.975 324.656 240.975 335.36C240.975 336.607 242.944 336.607 242.944 335.36C242.944 324.656 242.944 313.887 242.944 303.183C242.944 301.935 240.975 301.935 240.975 303.183Z" fill="#FAA286"/>
<path d="M207.966 336.936C234.347 336.936 260.728 336.936 287.109 336.936C288.356 336.936 288.356 334.966 287.109 334.966C260.728 334.966 234.347 334.966 207.966 334.966C206.719 334.966 206.719 336.936 207.966 336.936Z" fill="#FAA286"/>
<path d="M263.222 337.855C263.222 346.129 263.222 354.337 263.222 362.611C263.222 363.859 265.191 363.859 265.191 362.611C265.191 354.337 265.191 346.129 265.191 337.855C265.191 336.542 263.222 336.542 263.222 337.855Z" fill="#FAA286"/>
<path d="M241.369 366.026C262.369 366.026 283.434 366.026 304.434 366.026C305.681 366.026 305.681 364.056 304.434 364.056C283.434 364.056 262.369 364.056 241.369 364.056C240.056 364.056 240.056 366.026 241.369 366.026Z" fill="#FAA286"/>
<path d="M770.963 280.134C770.963 282.761 770.963 285.322 770.963 287.948C770.963 289.196 772.931 289.196 772.931 287.948C772.931 285.322 772.931 282.761 772.931 280.134C772.931 278.886 770.963 278.886 770.963 280.134Z" fill="#FAA286"/>
<path d="M772.537 281.71C817.687 281.71 862.837 281.71 907.988 281.71C909.234 281.71 909.234 279.74 907.988 279.74C862.837 279.74 817.687 279.74 772.537 279.74C771.291 279.74 771.291 281.71 772.537 281.71Z" fill="#FAA286"/>
<path d="M773.719 288.933C818.475 288.933 863.231 288.933 907.922 288.933C909.169 288.933 909.169 286.963 907.922 286.963C863.166 286.963 818.409 286.963 773.719 286.963C772.472 286.963 772.472 288.933 773.719 288.933Z" fill="#FAA286"/>
<path d="M907.659 280.134C907.397 282.826 907.528 285.519 907.987 288.211C908.184 289.459 910.088 288.933 909.891 287.686C909.431 285.19 909.366 282.629 909.628 280.134C909.759 278.886 907.791 278.886 907.659 280.134Z" fill="#FAA286"/>
<path d="M781.791 280.2C781.791 261.879 781.791 243.558 781.791 225.237C781.791 223.989 779.822 223.989 779.822 225.237C779.822 243.558 779.822 261.879 779.822 280.2C779.822 281.513 781.791 281.513 781.791 280.2Z" fill="#FAA286"/>
<path d="M781.791 225.565C787.369 223.332 793.275 223.661 798.459 226.747C799.575 227.404 800.559 225.696 799.444 225.04C793.866 221.756 787.237 221.231 781.266 223.661C780.084 224.12 780.609 226.025 781.791 225.565Z" fill="#FAA286"/>
<path d="M798.131 226.287C798.131 243.886 798.131 261.55 798.131 279.149C798.131 280.397 800.1 280.397 800.1 279.149C800.1 261.55 800.1 243.886 800.1 226.287C800.1 225.04 798.131 225.04 798.131 226.287Z" fill="#FAA286"/>
<path d="M800.362 240.997C804.366 239.355 808.566 239.618 812.306 241.916C813.422 242.573 814.406 240.865 813.291 240.209C809.156 237.713 804.3 237.254 799.838 239.092C798.656 239.552 799.181 241.456 800.362 240.997Z" fill="#FAA286"/>
<path d="M811.912 241.85C811.912 254.196 811.912 266.475 811.912 278.821C811.912 280.068 813.881 280.068 813.881 278.821C813.881 266.475 813.881 254.196 813.881 241.85C813.881 240.603 811.912 240.603 811.912 241.85Z" fill="#FAA286"/>
<path d="M782.053 240.668C787.631 239.421 793.144 239.815 798.525 241.719C799.706 242.113 800.231 240.209 799.05 239.815C793.341 237.779 787.434 237.516 781.528 238.764C780.347 239.027 780.872 240.931 782.053 240.668Z" fill="#FAA286"/>
<path d="M798.984 263.455C803.184 262.338 807.384 262.207 811.65 263.126C812.897 263.389 813.422 261.485 812.175 261.222C807.581 260.237 803.053 260.303 798.459 261.55C797.278 261.879 797.737 263.783 798.984 263.455Z" fill="#FAA286"/>
<path d="M836.719 279.543C836.719 275.866 836.719 272.188 836.719 268.511C836.719 267.263 834.75 267.263 834.75 268.511C834.75 272.188 834.75 275.866 834.75 279.543C834.75 280.791 836.719 280.791 836.719 279.543Z" fill="#FAA286"/>
<path d="M835.734 269.102C857.062 269.102 878.325 269.102 899.653 269.102C900.9 269.102 900.9 267.132 899.653 267.132C878.325 267.132 857.062 267.132 835.734 267.132C834.422 267.132 834.422 269.102 835.734 269.102Z" fill="#FAA286"/>
<path d="M900.309 270.153C901.556 270.153 901.556 268.183 900.309 268.183C898.997 268.183 898.997 270.153 900.309 270.153Z" fill="#FAA286"/>
<path d="M899.325 269.168C899.325 272.517 899.325 275.866 899.325 279.215C899.325 280.462 901.294 280.462 901.294 279.215C901.294 275.866 901.294 272.517 901.294 269.168C901.294 267.92 899.325 267.92 899.325 269.168Z" fill="#FAA286"/>
<path d="M849.122 267.789C849.122 264.308 849.122 260.894 849.122 257.413C849.122 256.166 847.153 256.166 847.153 257.413C847.153 260.894 847.153 264.308 847.153 267.789C847.153 269.036 849.122 269.036 849.122 267.789Z" fill="#FAA286"/>
<path d="M848.137 258.07C869.072 258.07 890.006 258.07 911.006 258.07C912.253 258.07 912.253 256.1 911.006 256.1C890.072 256.1 869.138 256.1 848.137 256.1C846.891 256.1 846.891 258.07 848.137 258.07Z" fill="#FAA286"/>
<path d="M910.35 257.085C910.35 259.974 910.35 262.864 910.35 265.753C910.35 267.001 912.319 267.001 912.319 265.753C912.319 262.864 912.319 259.974 912.319 257.085C912.319 255.772 910.35 255.772 910.35 257.085Z" fill="#FAA286"/>
<path d="M898.931 269.43C902.738 269.43 906.544 269.43 910.35 269.43C911.597 269.43 911.597 267.46 910.35 267.46C906.544 267.46 902.738 267.46 898.931 267.46C897.619 267.46 897.619 269.43 898.931 269.43Z" fill="#FAA286"/>
<path d="M910.219 265.819C910.088 266.541 910.088 267.198 910.284 267.854C910.416 268.38 911.006 268.708 911.466 268.511C911.991 268.38 912.319 267.789 912.122 267.329C912.056 267.001 911.991 266.607 912.056 266.344C912.122 265.819 911.925 265.228 911.4 265.162C910.941 265.031 910.284 265.293 910.219 265.819Z" fill="#FAA286"/>
<path d="M863.1 257.545C863.953 260.894 864.15 264.308 863.691 267.789C863.559 269.036 865.528 269.036 865.659 267.789C866.119 264.177 865.856 260.565 865.003 257.019C864.675 255.837 862.772 256.363 863.1 257.545Z" fill="#FAA286"/>
<path d="M877.931 268.971C878.391 272.254 878.128 275.472 877.341 278.624C877.013 279.871 878.916 280.397 879.244 279.149C880.162 275.603 880.359 272.057 879.834 268.445C879.703 267.198 877.8 267.723 877.931 268.971Z" fill="#FAA286"/>
<path d="M865.069 348.887C865.069 354.075 865.069 359.197 865.069 364.384C865.069 365.632 867.037 365.632 867.037 364.384C867.037 359.197 867.037 354.075 867.037 348.887C867.037 347.574 865.069 347.574 865.069 348.887Z" fill="#FAA286"/>
<path d="M849.844 364.647C862.969 364.647 876.094 364.647 889.219 364.647C890.466 364.647 890.466 362.677 889.219 362.677C876.094 362.677 862.969 362.677 849.844 362.677C848.597 362.677 848.597 364.647 849.844 364.647Z" fill="#FAA286"/>
<path d="M827.466 143.744C827.466 155.564 827.466 167.45 827.466 179.27C827.466 180.518 829.434 180.518 829.434 179.27C829.434 167.45 829.434 155.564 829.434 143.744C829.434 142.497 827.466 142.497 827.466 143.744Z" fill="#FAA286"/>
<path d="M829.959 143.679C844.922 143.679 859.819 143.679 874.781 143.679C876.028 143.679 876.028 141.709 874.781 141.709C859.819 141.709 844.922 141.709 829.959 141.709C828.712 141.709 828.712 143.679 829.959 143.679Z" fill="#FAA286"/>
<path d="M874.847 143.416C874.847 154.842 874.847 166.268 874.847 177.628C874.847 178.876 876.816 178.876 876.816 177.628C876.816 166.202 876.816 154.776 876.816 143.416C876.816 142.168 874.847 142.168 874.847 143.416Z" fill="#FAA286"/>
<path d="M828.187 180.386C844.069 180.386 859.95 180.386 875.831 180.386C877.078 180.386 877.078 178.416 875.831 178.416C859.95 178.416 844.069 178.416 828.187 178.416C826.941 178.416 826.941 180.386 828.187 180.386Z" fill="#FAA286"/>
<path d="M831.862 147.816C831.862 156.812 831.862 165.743 831.862 174.739C831.862 175.987 833.831 175.987 833.831 174.739C833.831 165.743 833.831 156.812 833.831 147.816C833.831 146.568 831.862 146.568 831.862 147.816Z" fill="#FAA286"/>
<path d="M833.306 148.604C845.578 148.604 857.916 148.604 870.187 148.604C871.434 148.604 871.434 146.634 870.187 146.634C857.916 146.634 845.578 146.634 833.306 146.634C832.059 146.634 832.059 148.604 833.306 148.604Z" fill="#FAA286"/>
<path d="M869.466 147.816C869.466 156.155 869.466 164.429 869.466 172.769C869.466 174.017 871.434 174.017 871.434 172.769C871.434 164.429 871.434 156.155 871.434 147.816C871.434 146.568 869.466 146.568 869.466 147.816Z" fill="#FAA286"/>
<path d="M833.306 175.724C845.513 175.724 857.719 175.724 869.991 175.724C871.238 175.724 871.238 173.754 869.991 173.754C857.784 173.754 845.578 173.754 833.306 173.754C832.059 173.754 832.059 175.724 833.306 175.724Z" fill="#FAA286"/>
<path d="M856.537 163.904C851.353 159.964 859.097 151.756 862.706 156.681C866.053 161.146 860.606 166.531 855.947 164.035C854.831 163.444 853.847 165.152 854.963 165.743C857.981 167.384 861.984 166.925 864.15 164.101C866.381 161.277 866.119 156.812 863.297 154.448C860.344 152.018 856.144 153.66 854.109 156.418C851.944 159.439 852.6 163.379 855.553 165.611C856.603 166.334 857.522 164.626 856.537 163.904Z" fill="#FAA286"/>
<path d="M850.303 173.623C850.041 168.435 856.406 166.465 860.409 166.465C865.331 166.465 866.906 170.865 868.941 174.608C869.531 175.724 871.237 174.739 870.647 173.623C869.269 171.127 867.956 167.844 865.659 166.005C863.559 164.364 860.934 164.429 858.441 164.692C853.847 165.217 848.006 168.041 848.334 173.623C848.4 174.87 850.369 174.87 850.303 173.623Z" fill="#FAA286"/>
<path d="M834.159 168.895C835.603 166.202 840.919 167.253 842.887 168.304C844.922 169.42 846.103 171.259 846.628 173.491C846.891 174.739 848.794 174.214 848.531 172.966C847.744 169.551 845.381 166.859 841.969 165.743C839.081 164.823 834.159 164.758 832.519 167.844C831.862 169.026 833.569 170.011 834.159 168.895Z" fill="#FAA286"/>
<path d="M837.966 164.035C835.8 163.97 836.325 160.752 837.244 159.636C838.425 158.191 840.788 157.994 842.166 159.373C843.281 160.424 843.609 162.394 842.691 163.641C842.034 164.561 841.05 164.758 840 164.758C839.606 164.758 837.966 164.823 837.703 164.495C836.981 163.444 835.275 164.429 835.997 165.48C836.784 166.662 838.425 166.728 839.737 166.728C841.312 166.793 842.822 166.399 843.937 165.217C846.037 162.919 845.316 159.045 842.822 157.337C840.131 155.564 836.391 156.549 835.013 159.439C833.831 162 834.684 165.874 837.966 165.94C839.278 166.071 839.278 164.101 837.966 164.035Z" fill="#FAA286"/>
<path d="M436.341 318.286C439.425 320.782 443.231 319.731 446.119 317.301C450.187 313.952 452.222 308.239 453.009 303.183C455.044 290.312 449.859 278.098 447.825 265.622C444.15 242.441 454.256 217.619 473.025 203.698C482.147 196.869 497.175 189.58 493.631 175.593C493.303 174.345 491.4 174.87 491.728 176.118C495.075 189.448 479.587 196.212 471.122 202.647C463.509 208.492 457.341 216.043 452.944 224.514C448.612 232.723 445.987 241.85 445.266 251.109C444.412 262.338 447.366 272.779 449.794 283.614C451.238 290.181 452.156 297.076 450.909 303.774C450.319 306.86 449.269 309.881 447.628 312.573C445.791 315.463 441.394 319.928 437.719 316.973C436.8 316.119 435.356 317.498 436.341 318.286Z" fill="#FAA286"/>
<path d="M492.909 174.805C485.494 175.133 478.997 169.354 479.391 161.737C479.784 153.791 489.169 146.437 497.109 148.538C504.197 150.442 509.644 158.257 507.872 165.546C506.1 172.835 497.897 174.411 491.597 175.461C490.35 175.658 490.875 177.563 492.122 177.366C500.259 176.052 509.709 173.163 510.234 163.313C510.628 155.302 503.475 146.634 495.272 146.305C486.609 145.911 477.881 153.003 477.422 161.803C477.028 170.471 484.444 177.169 492.909 176.84C494.156 176.709 494.156 174.739 492.909 174.805Z" fill="#FAA286"/>
<path d="M483.197 169.683C486.347 161.737 503.147 160.424 505.116 169.88C505.378 171.127 507.281 170.602 507.019 169.354C504.591 157.797 485.1 159.504 481.294 169.157C480.834 170.339 482.737 170.799 483.197 169.683Z" fill="#FAA286"/>
<path d="M493.041 160.818C491.662 159.833 491.137 157.928 492.056 156.484C493.106 154.711 495.338 154.514 497.044 155.433C498.356 156.155 498.619 157.797 497.831 159.045C496.847 160.555 494.747 160.752 493.106 160.358C491.859 160.095 491.334 162 492.581 162.262C495.206 162.853 498.356 162.262 499.669 159.701C500.85 157.403 499.997 154.645 497.634 153.529C495.009 152.347 491.859 152.872 490.35 155.433C488.841 157.863 489.825 160.883 492.056 162.459C493.106 163.313 494.091 161.606 493.041 160.818Z" fill="#FAA286"/>
<path d="M520.866 140.592C527.756 122.337 547.575 113.012 566.016 111.765C578.222 110.911 590.428 112.815 602.372 115.114C613.659 117.346 625.406 120.892 636.956 120.498C646.472 120.17 656.25 116.23 660.712 107.365C661.303 106.249 659.597 105.264 659.006 106.38C653.822 116.624 641.878 119.251 631.312 118.397C618.975 117.412 606.834 113.735 594.694 111.699C575.006 108.416 554.006 107.956 536.484 119.054C528.544 124.11 522.244 131.202 518.897 140.067C518.503 141.249 520.406 141.774 520.866 140.592Z" fill="#FAA286"/>
<path d="M668.653 106.249C685.978 106.249 703.369 106.249 720.694 106.249C721.941 106.249 721.941 104.279 720.694 104.279C703.369 104.279 685.978 104.279 668.653 104.279C667.341 104.279 667.341 106.249 668.653 106.249Z" fill="#FAA286"/>
<path d="M667.931 104.147C664.847 101.127 668.194 96.0047 670.622 93.7063C673.575 90.817 677.644 89.7007 681.581 91.2767C681.909 91.408 682.566 91.211 682.697 90.817C685.059 85.301 690.637 81.2953 696.741 81.558C703.106 81.8207 708.487 86.6143 710.062 92.6557C710.194 93.2467 710.981 93.575 711.506 93.2467C714.394 91.4737 717.347 93.575 718.528 96.2673C719.578 98.7627 719.316 101.586 719.053 104.279C718.922 105.526 720.891 105.526 721.022 104.279C721.416 100.339 721.678 95.6763 718.528 92.6557C716.297 90.5543 713.212 89.8977 710.587 91.5393C711.047 91.7363 711.572 91.9333 712.031 92.1303C710.259 85.5637 704.616 80.3103 697.725 79.6537C690.637 78.9313 683.812 83.331 681.056 89.832C681.45 89.7007 681.778 89.5037 682.172 89.3723C676.922 87.271 671.409 89.5037 667.997 93.8377C665.437 97.0553 663.206 102.243 666.684 105.592C667.472 106.446 668.85 105.067 667.931 104.147Z" fill="#FAA286"/>
<path d="M705.272 113.8C713.344 112.881 718.069 121.352 719.316 128.181C720.628 135.208 719.381 142.234 718.659 149.26C717.544 159.833 718.266 172.572 728.306 178.745C729.356 179.401 730.406 177.694 729.291 177.037C715.575 168.632 721.284 149.917 721.809 137.046C722.203 127.262 718.331 110.386 705.272 111.83C704.025 111.962 704.025 113.932 705.272 113.8Z" fill="#FAA286"/>
<path d="M739.2 167.647C733.294 182.553 727.453 197.46 721.547 212.3C721.088 213.482 722.991 214.008 723.45 212.826C729.356 197.919 735.197 183.013 741.103 168.172C741.563 166.99 739.66 166.531 739.2 167.647Z" fill="#FAA286"/>
<path d="M740.119 168.895C750.356 168.369 760.528 168.632 770.7 169.814C770.372 169.42 770.044 168.96 769.781 168.566C764.925 184.129 760.988 199.889 757.838 215.846C757.575 217.094 759.478 217.619 759.741 216.372C762.891 200.415 766.894 184.655 771.684 169.092C771.881 168.435 771.356 167.91 770.766 167.844C760.594 166.662 750.422 166.399 740.184 166.925C738.872 166.99 738.872 168.96 740.119 168.895Z" fill="#FAA286"/>
<path d="M722.006 214.205C728.044 214.467 734.016 214.796 740.053 215.19C745.894 215.518 752.128 215.387 757.641 217.619C758.822 218.079 759.347 216.175 758.166 215.715C752.916 213.548 746.944 213.679 741.366 213.351C734.934 212.957 728.503 212.629 722.006 212.3C720.759 212.169 720.759 214.139 722.006 214.205Z" fill="#FAA286"/>
<path d="M741.037 175.461C747.338 175.593 753.638 176.052 759.872 176.906C761.119 177.103 761.644 175.199 760.397 175.002C753.966 174.082 747.534 173.557 741.037 173.426C739.725 173.426 739.725 175.396 741.037 175.461Z" fill="#FAA286"/>
<path d="M739.134 179.927C742.678 179.795 746.222 179.861 749.766 180.189C751.012 180.321 751.012 178.351 749.766 178.219C746.222 177.891 742.678 177.76 739.134 177.957C737.888 178.022 737.888 179.992 739.134 179.927Z" fill="#FAA286"/>
<path d="M734.803 188.792C742.35 188.332 749.503 187.675 756.919 189.514C758.166 189.842 758.691 187.938 757.444 187.61C749.831 185.771 742.547 186.362 734.803 186.822C733.491 186.887 733.491 188.857 734.803 188.792Z" fill="#FAA286"/>
<path d="M735.131 194.57C739.463 194.242 743.794 194.242 748.125 194.636C749.372 194.767 749.372 192.797 748.125 192.666C743.794 192.272 739.463 192.272 735.131 192.6C733.884 192.732 733.819 194.702 735.131 194.57Z" fill="#FAA286"/>
<path d="M731.719 202.188C737.625 201.794 743.4 201.991 749.241 202.779C750.487 202.976 750.487 201.006 749.241 200.809C743.4 200.021 737.559 199.824 731.719 200.218C730.472 200.283 730.472 202.253 731.719 202.188Z" fill="#FAA286"/>
<path d="M405.169 114.063C407.794 117.609 411.6 119.054 415.472 120.827C420.066 122.928 424.266 125.752 427.678 129.495C435.422 137.834 437.981 149.063 438.178 160.161C438.638 180.977 431.616 202.779 441.066 222.479C441.591 223.595 443.297 222.61 442.772 221.494C432.863 200.743 441.656 177.497 439.95 155.696C439.228 146.24 436.538 136.981 430.434 129.626C427.547 126.146 424.003 123.125 420.066 120.892C415.669 118.397 409.959 117.281 406.875 113.078C406.153 112.093 404.447 113.078 405.169 114.063Z" fill="#FAA286"/>
<path d="M382.725 86.286C381.019 84.119 381.15 82.6087 383.119 81.755C383.972 81.2953 384.825 80.967 385.809 80.77C387.056 80.5073 388.434 80.4417 389.747 80.5073C393.684 80.7043 397.688 81.755 397.491 86.5487C397.294 92.196 396.244 97.7777 394.866 103.228C393.422 108.81 391.65 114.26 389.747 119.71C389.353 120.892 389.025 122.271 388.434 123.388C387.253 125.423 385.416 125.358 383.447 125.358C381.019 125.358 377.934 125.686 375.572 125.029C372.947 124.307 372.356 121.68 374.916 119.973C376.097 119.185 377.737 119.054 379.116 119.054C380.887 119.054 382.462 119.448 383.972 118.266C386.859 116.033 387.319 109.992 387.975 106.774C388.959 102.112 390.6 96.3987 390.272 91.6707C390.009 88.059 386.466 87.9277 383.906 86.4173C382.791 85.7607 381.806 87.468 382.922 88.1247C384.956 89.3067 387.909 89.438 388.303 92.1303C388.763 95.2823 387.45 99.5507 386.859 102.703C386.269 105.723 385.613 108.744 384.825 111.699C384.234 113.932 383.972 116.624 381.019 117.215C379.837 117.478 378.394 117.084 377.147 117.281C373.997 117.74 370.912 119.973 371.372 123.519C371.962 127.984 377.278 127.196 380.559 127.328C384.628 127.459 388.697 128.05 390.534 123.716C392.831 118.331 394.472 112.421 396.047 106.84C397.688 101.061 398.934 95.0853 399.394 89.1097C399.788 84.4473 399.984 80.7043 394.8 79.4567C390.272 78.3403 384.037 77.815 380.494 81.4923C378.131 83.922 378.722 88.7157 382.791 88.3873C383.972 88.1247 383.972 86.1547 382.725 86.286Z" fill="#FAA286"/>
<path d="M374.784 93.3123C374.719 93.2466 374.653 93.181 374.587 93.1153C374.325 92.8526 373.931 92.787 373.603 92.8526C371.7 93.5093 370.978 96.5956 370.453 98.303C369.534 101.455 369.337 104.673 369.797 107.956C369.928 109.204 371.897 109.204 371.766 107.956C371.503 105.658 371.437 103.425 371.831 101.127C372.028 99.9446 374.063 95.348 373.341 94.6913C374.259 95.6106 375.637 94.2316 374.784 93.3123Z" fill="#FAA286"/>
<path d="M368.156 86.089C362.119 93.772 358.247 103.031 360.806 112.881C361.134 114.129 363.038 113.603 362.709 112.356C360.347 103.294 364.022 94.56 369.534 87.468C370.322 86.483 368.944 85.104 368.156 86.089Z" fill="#FAA286"/>
<path d="M359.888 77.224C349.847 90.423 345.122 107.102 346.828 123.65C346.959 124.898 348.928 124.898 348.797 123.65C347.156 107.431 351.684 91.211 361.594 78.209C362.316 77.224 360.609 76.239 359.888 77.224Z" fill="#FAA286"/>
<path d="M345.909 144.335C340.856 146.765 336.131 150.114 332.391 154.317C328.584 158.651 327.403 163.313 326.812 168.96C325.5 181.897 320.709 196.081 307.716 201.531C306.534 201.991 307.059 203.895 308.241 203.435C318.609 199.101 324.647 189.251 327.206 178.613C328.716 172.244 327.994 164.692 331.341 158.979C334.753 153.135 340.922 148.866 346.894 145.977C348.075 145.517 347.091 143.81 345.909 144.335Z" fill="#FAA286"/>
<path d="M279.956 236.4C275.625 236.531 270.703 234.693 269.128 230.227C267.291 224.974 271.228 219.852 275.428 217.16C283.566 211.906 294.525 209.871 303.975 209.739C308.766 209.674 314.213 209.739 318.413 212.3C323.794 215.584 324.713 221.756 320.513 226.419C314.147 233.511 303.188 234.233 294.394 234.89C293.147 234.955 293.147 236.925 294.394 236.86C303.188 236.203 313.031 235.415 320.119 229.505C326.616 224.12 327.075 215.19 319.463 210.527C311.587 205.734 299.578 207.31 291.047 209.148C282.844 210.921 271.622 214.139 267.947 222.61C264.141 231.278 271.425 238.501 280.087 238.239C281.269 238.304 281.269 236.334 279.956 236.4Z" fill="#FAA286"/>
<path d="M279.628 237.188C277.987 239.815 276.412 242.441 274.772 245.002C274.247 245.856 275.297 246.775 276.15 246.381C280.153 244.214 284.484 242.835 288.553 240.931C290.784 239.946 292.95 238.764 295.05 237.451C295.772 236.991 296.625 236.728 296.822 235.809C296.953 235.349 296.691 234.693 296.166 234.627C296.1 234.627 296.034 234.627 295.969 234.561C295.509 234.496 294.853 234.693 294.788 235.218C294.788 235.284 294.788 235.284 294.788 235.349C294.525 236.597 296.428 237.122 296.691 235.875C296.691 235.809 296.691 235.809 296.691 235.743C296.297 235.94 295.903 236.203 295.509 236.4C295.575 236.4 295.641 236.4 295.706 236.466C295.509 236.072 295.247 235.678 295.05 235.284C294.853 235.94 291.178 237.451 290.391 237.91C288.422 238.961 286.388 239.815 284.288 240.668C281.203 241.916 278.184 243.098 275.297 244.674C275.756 245.134 276.216 245.593 276.675 246.053C278.316 243.426 279.891 240.8 281.531 238.239C281.991 237.122 280.284 236.137 279.628 237.188Z" fill="#FAA286"/>
<path d="M281.794 225.828C281.728 225.696 281.728 225.434 281.925 225.434C282.45 225.434 281.859 226.09 281.794 226.156C281.466 226.353 280.35 226.616 280.416 225.959C280.481 225.171 281.991 224.317 282.253 225.499C282.319 225.828 282.056 226.222 281.728 226.287C281.531 226.353 281.4 226.353 281.269 226.222C281.203 226.156 281.072 226.09 281.203 226.09C282.45 226.156 282.45 224.186 281.203 224.12C279.891 223.989 278.906 225.368 279.234 226.616C279.563 227.863 281.006 228.52 282.188 228.192C283.369 227.863 284.288 226.813 284.288 225.565C284.288 224.317 283.303 223.267 282.188 223.004C279.759 222.413 277.2 225.959 279.3 227.732C281.006 229.177 284.419 227.863 284.222 225.434C284.091 224.12 282.647 223.07 281.334 223.529C280.022 223.989 279.497 225.631 280.153 226.813C280.678 227.929 282.384 226.944 281.794 225.828Z" fill="#FAA286"/>
<path d="M296.297 224.055C296.231 223.661 296.034 223.135 296.428 222.807C296.625 222.61 296.953 222.61 297.216 222.61C297.872 222.741 297.741 223.464 297.281 223.792C297.019 223.989 296.756 223.989 296.559 223.726C296.362 223.464 296.428 223.398 296.625 223.267C296.756 223.201 296.362 223.267 296.691 223.201C297.478 223.07 296.166 223.989 296.362 223.332C295.969 224.58 297.872 225.04 298.266 223.858C298.594 222.676 297.478 221.494 296.297 221.691C294.919 221.953 294.591 223.595 295.444 224.58C296.231 225.499 297.675 225.302 298.266 224.252C298.856 223.201 298.462 221.822 297.281 221.428C296.1 221.034 294.787 221.756 294.525 222.938C294.197 224.252 295.116 225.565 296.428 225.893C298.791 226.419 300.759 223.201 299.053 221.428C298.2 220.574 296.822 220.509 295.772 220.968C294.328 221.691 294.262 223.201 294.525 224.58C294.591 225.828 296.494 225.302 296.297 224.055Z" fill="#FAA286"/>
<path d="M310.866 219.655C311.128 219.655 311.391 219.721 311.719 219.721V219.655C311.784 219.589 311.784 219.458 311.85 219.392C311.916 219.261 312.112 219.13 312.244 219.064C312.572 218.933 312.9 218.933 313.097 219.261C313.359 219.786 312.9 220.771 312.244 220.377C311.85 220.115 311.784 219.458 312.375 219.589C312.506 219.589 312.572 219.655 312.637 219.721C312.637 219.721 312.637 219.852 312.637 219.721C312.637 219.589 312.637 219.786 312.572 219.786C312.375 219.918 312.309 220.049 312.112 219.918C311.653 219.589 310.997 219.852 310.734 220.246C310.472 220.771 310.669 221.297 311.062 221.625C312.966 223.004 315.525 220.246 314.016 218.407C312.637 216.766 309.684 217.816 309.816 219.983C309.881 221.1 310.734 222.085 311.784 222.347C312.834 222.61 313.95 222.085 314.541 221.165C315.853 219.13 314.016 216.306 311.587 217.094C310.472 217.488 309.487 218.604 309.619 219.852C309.75 221.231 311.719 221.953 312.441 220.574C313.097 219.524 311.456 218.539 310.866 219.655Z" fill="#FAA286"/>
<path d="M350.503 162.394C358.575 157.928 365.597 152.018 371.437 144.861C372.225 143.876 370.847 142.497 370.059 143.482C364.35 150.508 357.459 156.287 349.519 160.686C348.403 161.277 349.387 162.985 350.503 162.394Z" fill="#FAA286"/>
<path d="M448.678 164.101C447.234 172.375 446.644 180.715 447.038 189.12C447.103 190.368 449.072 190.368 449.006 189.12C448.613 180.912 449.137 172.703 450.581 164.626C450.778 163.379 448.875 162.853 448.678 164.101Z" fill="#FAA286"/>
<path d="M438.638 356.045C438.638 345.998 443.363 336.476 451.434 330.435C452.419 329.712 451.434 328.005 450.45 328.727C441.788 335.163 436.734 345.21 436.734 356.045C436.669 357.292 438.638 357.292 438.638 356.045Z" fill="#FAA286"/>
<path d="M548.559 621.207C549.609 630.663 551.25 641.038 553.875 652.267C557.419 667.436 561.947 680.701 566.475 691.864C565.228 692.98 561.487 695.935 555.975 696.329C552.497 696.592 549.741 695.738 548.166 695.147C545.803 686.939 543.506 678.402 541.406 669.537C537.075 651.282 533.925 633.88 531.628 617.661C537.337 618.843 542.981 620.025 548.559 621.207Z" fill="#191919"/>
<path d="M695.888 615.034C695.034 624.424 693.591 634.865 691.162 646.094C687.75 661.986 683.222 675.776 678.628 687.399C679.284 687.99 683.025 691.536 688.8 691.273C693.787 691.076 697.003 688.121 697.791 687.399C699.3 679.453 700.744 671.442 702.188 663.43C705.338 645.897 708.159 628.627 710.85 611.554C705.862 612.67 700.875 613.852 695.888 615.034Z" fill="#191919"/>
<path d="M578.55 588.833C580.059 598.88 581.831 609.255 583.866 619.893C586.819 635.325 590.166 650.034 593.709 663.956C592.2 664.875 589.181 666.385 585.047 666.648C581.569 666.845 578.812 666.057 577.237 665.466C575.269 656.141 573.366 646.685 571.462 637.229C567.984 619.696 564.769 602.426 561.684 585.353C567.328 586.469 572.906 587.651 578.55 588.833Z" fill="#191919"/>
<path d="M671.147 586.863C669.375 596.779 667.8 607.154 666.422 617.923C664.519 632.764 663.206 646.948 662.419 660.475C663.534 661.198 666.159 662.708 669.9 662.905C673.903 663.036 676.856 661.46 677.972 660.804C677.316 653.055 677.053 644.453 677.447 635.259C678.234 614.837 681.975 597.238 686.109 583.383C681.122 584.499 676.134 585.681 671.147 586.863Z" fill="#191919"/>
<path d="M787.763 367.142C799.247 387.63 790.387 410.285 768.862 466.562C758.494 493.616 739.528 543.326 712.753 614.18C686.437 623.768 642.863 635.588 588.984 631.845C557.681 629.678 531.431 622.914 511.547 615.953C508.594 610.634 498.356 590.737 506.034 571.431C510.3 560.728 518.897 553.045 537.141 543.983C555.122 535.052 586.819 522.51 632.888 520.211C614.841 430.314 645.75 356.636 693.853 339.628C725.419 328.53 771.947 338.971 787.763 367.142Z" fill="#DF6F4C" stroke="#191919" stroke-width="2" stroke-miterlimit="10"/>
<path d="M783.563 374.563C764.531 398.662 760.2 431.036 752.916 459.995C745.106 490.99 736.116 521.919 722.662 551.009C715.247 566.966 706.519 582.332 696.084 596.516C695.363 597.567 697.069 598.552 697.791 597.501C716.1 572.548 729.028 544.245 739.003 515.089C749.109 485.408 755.803 454.807 763.678 424.535C768.141 407.33 773.85 390.126 785.006 376.007C785.728 374.957 784.35 373.578 783.563 374.563Z" fill="#191919"/>
<path d="M511.941 601.704C555.713 617.792 603.422 622.52 649.491 615.362C662.681 613.327 675.741 610.306 688.538 606.366C689.719 605.972 689.259 604.068 688.013 604.462C643.388 618.252 595.481 620.353 549.806 610.634C537.141 607.942 524.606 604.265 512.466 599.799C511.284 599.34 510.759 601.244 511.941 601.704Z" fill="#191919"/>
<path d="M666.028 550.09C677.053 553.701 686.438 560.99 692.738 570.84C693.394 571.891 695.1 570.906 694.444 569.855C687.881 559.611 678.103 551.994 666.553 548.185C665.306 547.791 664.781 549.696 666.028 550.09Z" fill="#191919"/>
<path d="M468.628 635.128C473.878 643.008 479.128 650.954 484.312 658.834C450.713 689.04 446.381 697.643 448.875 699.744C453.863 703.881 489.628 685.494 493.303 683.59C506.625 676.761 516.666 670.128 523.359 665.4C520.997 658.965 517.847 651.742 513.516 644.124C507.806 634.077 501.506 625.606 495.534 618.711C486.544 624.096 477.553 629.612 468.628 635.128Z" fill="#191919"/>
<path d="M664.978 480.352C667.341 485.474 669.834 492.763 670.228 501.562C670.819 514.827 666.487 525.399 663.206 531.506C661.434 533.804 658.284 537.613 653.625 541.75C653.625 541.75 643.059 551.075 626.259 558.232C609.131 565.587 559.322 574.452 491.662 576.159C493.631 584.565 497.175 594.874 503.475 605.972C506.953 612.079 510.759 617.464 514.5 622.126C512.006 625.409 504.919 633.749 490.809 639.002C477.225 644.059 464.756 643.468 459.834 643.074C452.747 636.573 445.462 628.824 438.703 619.565C418.819 592.182 414.159 565.718 413.306 548.711C418.228 545.165 425.447 540.305 434.897 535.118C454.584 524.283 472.631 518.373 487.462 513.973C512.991 506.487 537.403 501.299 593.578 491.778C611.166 488.823 635.512 484.751 664.978 480.352Z" fill="#3D312D" stroke="#191919" stroke-width="2" stroke-miterlimit="10"/>
<path opacity="0.19" d="M602.634 491.646C600.731 504.189 595.35 520.474 578.681 530.587C562.472 540.437 548.888 536.431 516.403 544.311C493.041 549.958 462.131 557.444 453.534 574.058C444.544 591.525 461.541 616.15 491.269 636.376C493.762 636.047 496.912 635.391 500.259 634.077C508.856 630.663 513.056 625.081 514.631 622.651C510.825 618.055 506.888 612.736 503.278 606.629C496.453 595.203 492.778 584.565 490.678 575.962C525.459 574.518 554.662 571.497 576.844 568.608C603.553 565.127 622.059 561.647 639.712 551.666C654.478 543.326 660.384 535.118 662.484 531.966C668.85 522.313 669.375 513.513 669.637 508.588C670.294 496.571 666.356 486.787 663.075 480.614C642.928 484.292 622.781 487.969 602.634 491.646Z" fill="#6C6D6D"/>
<path opacity="0.19" d="M663.731 481.993C662.419 494.207 657.759 513.513 639.187 528.748C627.769 538.138 615.497 542.341 567.328 555.343C546.066 561.056 520.341 567.82 491.072 575.174C528.281 574.78 558.534 571.694 580.256 568.739C602.766 565.653 613.791 562.96 625.209 558.035C636.037 553.373 657.891 543.917 666.816 524.02C675.412 504.714 666.75 487.378 663.731 481.993Z" fill="#6C6D6D"/>
<path opacity="0.22" d="M491.269 576.159C491.006 584.827 491.4 594.743 493.041 605.644C494.616 616.413 497.175 626.066 499.931 634.471C502.162 633.158 504.722 631.385 507.216 629.218C510.234 626.591 512.466 624.096 514.106 621.929C510.3 616.938 506.428 611.16 502.819 604.659C496.978 594.152 493.5 584.433 491.269 576.159Z" fill="#6C6D6D"/>
<path d="M488.25 672.821C493.303 682.736 498.291 692.652 503.344 702.633C471.056 740.589 466.856 751.358 469.284 753.985C474.075 759.238 508.463 736.058 512.006 733.694C524.803 725.091 534.516 716.752 540.947 710.842C538.65 702.765 535.631 693.703 531.431 684.05C525.984 671.442 519.881 660.804 514.172 652.07C505.509 659.031 496.847 665.926 488.25 672.821Z" fill="#191919"/>
<path d="M676.987 478.316C679.284 484.817 681.647 493.879 682.041 504.977C682.631 521.656 678.431 534.921 675.281 542.604C673.575 545.493 670.556 550.287 666.094 555.54C666.094 555.54 655.987 567.294 639.844 576.291C623.372 585.484 575.466 596.713 510.497 598.814C512.4 609.387 515.747 622.323 521.85 636.244C525.197 643.927 528.872 650.691 532.481 656.535C530.119 660.672 523.294 671.113 509.709 677.746C496.65 684.115 484.706 683.393 479.916 682.802C473.091 674.659 466.069 664.875 459.638 653.252C440.475 618.843 436.013 585.55 435.225 564.208C439.95 559.808 446.906 553.636 455.962 547.135C474.928 533.542 492.187 526.056 506.494 520.54C530.972 511.149 554.531 504.648 608.541 492.631C625.209 488.888 648.703 483.832 676.987 478.316Z" fill="#3D312D" stroke="#191919" stroke-width="2" stroke-miterlimit="10"/>
<path opacity="0.19" d="M617.072 492.5C615.234 508.26 610.05 528.682 594.038 541.422C578.484 553.833 565.359 548.776 534.188 558.692C511.744 565.784 482.016 575.24 473.747 596.122C465.084 618.055 481.425 649.049 509.972 674.397C512.4 674.003 515.419 673.149 518.634 671.507C526.903 667.239 530.906 660.213 532.416 657.126C528.741 651.348 524.934 644.65 521.456 636.967C514.894 622.586 511.35 609.255 509.381 598.42C542.85 596.582 570.872 592.839 592.266 589.227C617.991 584.893 635.709 580.493 652.706 567.951C666.881 557.444 672.591 547.135 674.559 543.195C680.663 531.046 681.188 520.014 681.45 513.842C682.041 498.738 678.3 486.459 675.15 478.71C655.791 483.241 636.431 487.838 617.072 492.5Z" fill="#6C6D6D"/>
<path opacity="0.19" d="M675.741 480.352C674.494 495.652 670.031 519.949 652.181 539.123C641.156 550.943 629.409 556.197 583.144 572.548C562.669 579.771 537.994 588.242 509.841 597.501C545.606 596.976 574.744 593.167 595.612 589.424C617.269 585.55 627.9 582.201 638.794 576.028C649.228 570.118 670.162 558.298 678.825 533.213C687.028 508.917 678.694 487.181 675.741 480.352Z" fill="#6C6D6D"/>
<path opacity="0.22" d="M510.038 598.749C509.775 609.649 510.169 622.126 511.744 635.785C513.319 649.378 515.681 661.46 518.372 671.967C520.538 670.26 522.966 668.093 525.394 665.335C528.281 662.051 530.447 658.899 532.022 656.207C528.347 649.903 524.606 642.68 521.194 634.471C515.55 621.338 512.138 609.058 510.038 598.749Z" fill="#6C6D6D"/>
<path d="M484.509 376.27C483.262 375.679 480.769 374.563 480.834 373.315C480.966 371.279 487.725 369.9 492.778 369.966C496.191 369.966 502.491 370.688 509.841 375.81C502.95 377.977 492.778 379.947 484.509 376.27Z" fill="white" stroke="#191919" stroke-width="2" stroke-miterlimit="10"/>
<path d="M642.338 291.1C629.869 289.459 618.647 308.174 617.597 309.881C613.791 316.382 613.331 320.716 610.706 332.602C604.341 361.561 600.928 376.27 591.478 385.135C582.947 393.081 572.972 394.985 570.347 395.379C559.125 397.152 548.953 392.949 529.134 384.478C512.4 377.321 510.366 374.694 501.244 373.643C496.584 373.118 483 371.608 474.009 380.341C468.234 385.923 465.675 394.854 467.775 396.692C470.466 399.056 481.491 390.717 481.622 390.914C481.688 391.045 478.341 392.621 475.584 396.036C474.206 397.677 471.844 401.223 472.697 402.143C474.206 403.981 483.459 392.818 493.631 394.788C500.588 396.101 501.9 402.405 509.972 403.587C514.697 404.31 518.831 402.865 521.456 401.617C526.05 406.608 533.531 413.7 544.359 419.479C550.791 422.893 573.497 434.648 601.256 427.818C630.722 420.595 645.553 397.546 650.213 390.323C652.838 386.186 672.131 355.322 662.813 320.716C661.172 315.134 655.2 292.808 642.338 291.1Z" fill="#FBCBCB" stroke="#191919" stroke-width="2" stroke-miterlimit="10"/>
<path opacity="0.25" d="M641.025 291.297C636.759 293.53 645.028 309.027 643.978 331.223C642.994 352.564 633.872 368.324 629.803 375.548C624.291 385.201 617.006 397.809 602.503 406.017C583.012 417.049 558.863 415.407 541.669 407.921C536.55 405.689 531.366 398.465 520.078 394.066C515.156 392.161 511.284 391.373 506.756 390.454C495.666 388.287 485.822 386.317 476.7 390.914C472.369 393.146 468.759 396.561 469.022 397.021C469.284 397.48 474.338 394.919 478.8 392.49C473.419 399.647 472.566 401.683 472.959 402.077C473.419 402.471 475.059 400.961 479.259 398.597C483.788 396.101 487.069 394.328 491.072 394.657C493.106 394.854 494.681 395.51 495.6 395.904C499.209 397.48 500.063 399.319 503.672 401.158C505.903 402.274 507.741 402.734 508.725 402.931C510.825 403.39 515.156 403.981 520.866 401.946C525.853 407.199 548.756 430.445 582.291 429.985C599.55 429.723 612.216 423.287 617.203 420.726C644.569 406.477 655.462 381.195 658.219 374.234C666.75 352.696 669.769 320.782 654.15 300.753C650.409 295.894 643.978 289.787 641.025 291.297Z" fill="#6C6D6D"/>
<path d="M468.956 396.692C471.516 392.884 474.862 389.863 478.866 387.696C479.719 387.236 478.931 385.989 478.144 386.448C473.944 388.747 470.4 391.964 467.709 395.97C467.119 396.758 468.431 397.48 468.956 396.692Z" fill="#191919"/>
<path d="M469.744 388.221C472.303 384.216 476.437 382.114 480.572 380.079C481.425 379.685 480.703 378.371 479.85 378.831C475.453 380.932 471.122 383.231 468.431 387.499C467.972 388.287 469.219 389.009 469.744 388.221Z" fill="#191919"/>
<path opacity="0.29" d="M659.859 314.937C658.875 321.57 657.103 331.157 653.953 342.452C647.784 364.778 642.206 384.872 627.638 400.829C609.591 420.529 585.113 425.914 571.069 427.556C581.503 429.985 589.706 429.526 594.891 428.803C634.266 423.287 655.528 380.932 661.303 362.414C662.288 359.131 664.388 352.367 664.65 343.108C665.109 330.763 662.091 320.847 659.859 314.937Z" fill="#6C6D6D"/>
<path opacity="0.26" d="M494.944 394C498.684 395.839 503.803 397.874 510.103 399.056C515.091 399.976 519.553 400.173 523.097 400.041C514.106 404.835 509.447 404.244 506.822 402.668C505.181 401.683 503.344 399.713 498.291 396.233C496.912 395.248 495.731 394.46 494.944 394Z" fill="#6C6D6D"/>
<path d="M362.25 501.956C362.25 533.476 362.25 565.062 362.25 596.582C362.25 600.39 368.156 600.39 368.156 596.582C368.156 565.062 368.156 533.476 368.156 501.956C368.156 498.213 362.25 498.147 362.25 501.956Z" fill="#161616"/>
<path d="M469.612 500.708C469.612 505.765 469.612 510.821 469.612 515.877C469.612 519.686 475.519 519.686 475.519 515.877C475.519 510.821 475.519 505.765 475.519 500.708C475.519 496.9 469.612 496.9 469.612 500.708Z" fill="#161616"/>
<path d="M280.744 498.082C312.572 468.072 344.4 437.997 376.294 407.987C427.809 408.906 479.259 409.826 530.775 410.745C522.375 439.901 513.975 468.991 505.575 498.147C430.631 498.082 355.687 498.082 280.744 498.082Z" fill="#FAA286" stroke="#191919" stroke-width="2" stroke-miterlimit="10"/>
<path d="M282.647 501.496C340.2 501.496 397.688 501.496 455.241 501.496C471.384 501.496 487.463 501.496 503.606 501.496C507.413 501.496 507.413 495.586 503.606 495.586C446.053 495.586 388.566 495.586 331.012 495.586C314.869 495.586 298.791 495.586 282.647 495.586C278.841 495.586 278.841 501.496 282.647 501.496Z" fill="#161616"/>
<path d="M299.512 500.511C299.512 565.85 299.512 631.188 299.512 696.461C299.512 714.782 299.512 733.037 299.512 751.358C299.512 755.167 305.419 755.167 305.419 751.358C305.419 686.02 305.419 620.681 305.419 555.409C305.419 537.088 305.419 518.832 305.419 500.511C305.419 496.703 299.512 496.703 299.512 500.511Z" fill="#161616"/>
<path d="M479.522 500.511C479.522 565.85 479.522 631.188 479.522 696.461C479.522 714.782 479.522 733.037 479.522 751.358C479.522 755.167 485.428 755.167 485.428 751.358C485.428 686.02 485.428 620.681 485.428 555.409C485.428 537.088 485.428 518.832 485.428 500.511C485.428 496.703 479.522 496.703 479.522 500.511Z" fill="#161616"/>
<path d="M302.466 622.454C348.797 622.454 395.128 622.454 441.459 622.454C454.584 622.454 467.709 622.454 480.834 622.454C484.641 622.454 484.641 616.544 480.834 616.544C434.503 616.544 388.172 616.544 341.841 616.544C328.716 616.544 315.591 616.544 302.466 616.544C298.659 616.544 298.659 622.454 302.466 622.454Z" fill="#161616"/>
<path d="M529.987 410.745C522.506 439.967 513.909 468.926 504.066 497.425C503.212 499.855 507.019 500.84 507.872 498.476C517.716 469.911 526.313 441.017 533.794 411.796C534.384 409.366 530.644 408.315 529.987 410.745Z" fill="#161616"/>
<path d="M215.775 757.793C250.622 757.793 285.403 757.793 320.25 757.793C324.056 757.793 324.056 751.883 320.25 751.883C285.403 751.883 250.622 751.883 215.775 751.883C211.969 751.883 211.969 757.793 215.775 757.793Z" fill="#161616"/>
<path d="M334.884 756.48C342.891 756.48 350.963 756.48 358.969 756.48C362.775 756.48 362.775 750.57 358.969 750.57C350.963 750.57 342.891 750.57 334.884 750.57C331.078 750.57 331.078 756.48 334.884 756.48Z" fill="#161616"/>
<path d="M439.359 757.334C470.728 757.334 502.097 757.334 533.531 757.334C537.338 757.334 537.338 751.424 533.531 751.424C502.163 751.424 470.794 751.424 439.359 751.424C435.553 751.424 435.553 757.334 439.359 757.334Z" fill="#161616"/>
<path d="M554.991 755.232C560.569 755.232 566.147 755.232 571.791 755.232C575.597 755.232 575.597 749.322 571.791 749.322C566.212 749.322 560.634 749.322 554.991 749.322C551.184 749.322 551.184 755.232 554.991 755.232Z" fill="#161616"/>
<path d="M184.144 736.977C197.728 736.977 211.312 736.977 224.831 736.977C228.637 736.977 228.637 731.067 224.831 731.067C211.247 731.067 197.662 731.067 184.144 731.067C180.338 731.067 180.338 736.977 184.144 736.977Z" fill="#161616"/>
<path d="M471.188 485.671C430.697 484.62 390.141 483.635 349.65 482.584C373.669 459.601 397.622 436.552 421.641 413.569C449.334 415.013 477.094 416.458 504.788 417.903C493.566 440.558 482.409 463.081 471.188 485.671Z" fill="#DF6F4C" stroke="#191919" stroke-width="2" stroke-miterlimit="10"/>
<path d="M420.263 413.109C396.703 435.895 373.144 458.747 349.584 481.534C348.534 445.023 347.419 408.447 346.369 371.936C370.256 356.833 394.144 341.729 418.031 326.626C418.687 355.454 419.475 384.281 420.263 413.109Z" fill="#DF6F4C" stroke="#191919" stroke-width="2" stroke-miterlimit="10"/>
<path d="M348.534 375.416C350.438 407.921 351.684 440.492 352.341 473.063C352.341 473.719 353.325 473.719 353.325 473.063C352.669 440.492 351.422 407.921 349.519 375.416C349.453 374.825 348.469 374.825 348.534 375.416Z" fill="#191919"/>
<path d="M349.059 375.548C371.044 361.232 393.028 346.917 415.013 332.602C415.538 332.273 415.078 331.42 414.488 331.748C392.503 346.063 370.519 360.379 348.534 374.694C348.009 375.088 348.469 375.942 349.059 375.548Z" fill="#191919"/>
<path d="M414.75 332.536C414.684 358.737 415.472 385.004 417.178 411.139C417.244 411.796 418.228 411.796 418.163 411.139C416.522 384.938 415.669 358.737 415.734 332.536C415.734 331.945 414.75 331.945 414.75 332.536Z" fill="#191919"/>
<path d="M352.997 474.442C374.522 453.625 396.112 432.809 417.637 412.058C418.097 411.599 417.375 410.942 416.916 411.336C395.391 432.152 373.8 452.969 352.275 473.719C351.881 474.179 352.537 474.901 352.997 474.442Z" fill="#191919"/>
<path d="M452.681 463.278C456.684 456.909 460.687 450.473 464.559 443.972C464.887 443.447 464.034 442.922 463.706 443.447C459.834 449.948 455.831 456.383 451.828 462.753C451.434 463.278 452.287 463.804 452.681 463.278Z" fill="#191919"/>
<path d="M464.297 443.775C469.481 443.972 474.666 443.972 479.85 443.71C480.506 443.71 480.506 442.725 479.85 442.725C474.666 442.922 469.481 442.922 464.297 442.79C463.641 442.79 463.641 443.775 464.297 443.775Z" fill="#191919"/>
<path d="M479.194 443.447C476.241 449.882 473.222 456.318 470.203 462.753C469.941 463.344 470.794 463.804 471.056 463.278C474.075 456.843 477.094 450.408 480.047 443.972C480.309 443.316 479.456 442.856 479.194 443.447Z" fill="#191919"/>
<path d="M452.353 463.804C458.128 464.657 464.231 464.263 470.072 464.001C470.728 464.001 470.728 463.016 470.072 463.016C464.362 463.278 458.325 463.672 452.616 462.884C451.959 462.753 451.697 463.738 452.353 463.804Z" fill="#191919"/>
<path d="M473.878 443.513C471.253 450.079 468.234 456.449 464.822 462.622C464.494 463.147 465.347 463.672 465.675 463.147C469.087 456.843 472.172 450.408 474.862 443.775C475.059 443.184 474.141 442.922 473.878 443.513Z" fill="#191919"/>
<path d="M378.788 473.26C393.225 455.398 408.187 437.931 423.609 420.858C424.003 420.398 423.347 419.676 422.887 420.135C407.466 437.143 392.503 454.61 378.066 472.537C377.672 473.063 378.394 473.719 378.788 473.26Z" fill="#191919"/>
<path d="M396.244 474.376C409.172 456.318 422.822 438.85 437.128 421.908C437.522 421.449 436.866 420.726 436.406 421.186C422.034 438.194 408.384 455.727 395.391 473.851C394.997 474.376 395.85 474.901 396.244 474.376Z" fill="#191919"/>
<path d="M415.013 477.068C426.234 458.288 438.506 440.164 451.763 422.762C452.156 422.237 451.303 421.777 450.909 422.237C437.653 439.638 425.381 457.762 414.159 476.543C413.831 477.068 414.684 477.594 415.013 477.068Z" fill="#191919"/>
<path d="M430.762 478.71C441.788 458.156 454.847 438.785 469.809 420.923C470.203 420.464 469.547 419.741 469.087 420.201C454.059 438.128 440.934 457.565 429.844 478.185C429.581 478.776 430.434 479.301 430.762 478.71Z" fill="#191919"/>
<path d="M387.188 462.622C403.988 460.849 420.788 462.95 437.522 465.183C438.178 465.248 438.113 464.263 437.522 464.198C420.853 461.965 404.053 459.798 387.188 461.637C386.597 461.702 386.597 462.687 387.188 462.622Z" fill="#191919"/>
<path d="M395.653 453.034C411.534 452.443 427.416 453.625 443.034 456.646C443.625 456.777 443.888 455.792 443.297 455.727C427.613 452.706 411.6 451.524 395.653 452.115C395.063 452.049 395.063 453.034 395.653 453.034Z" fill="#191919"/>
<path d="M403.266 443.775C418.556 442.79 433.847 444.169 448.744 447.847C449.334 447.978 449.597 447.059 449.006 446.927C434.044 443.184 418.687 441.805 403.266 442.79C402.609 442.856 402.609 443.841 403.266 443.775Z" fill="#191919"/>
<path d="M411.141 434.516C425.841 434.582 440.409 436.092 454.781 439.047C455.372 439.179 455.634 438.194 455.044 438.128C440.606 435.173 425.906 433.663 411.141 433.597C410.55 433.531 410.55 434.516 411.141 434.516Z" fill="#191919"/>
<path d="M418.95 425.914C432.928 426.177 446.841 427.818 460.425 430.905C461.016 431.036 461.278 430.117 460.687 429.985C446.972 426.899 432.994 425.192 418.95 424.995C418.294 424.929 418.294 425.914 418.95 425.914Z" fill="#191919"/>
<path d="M463.969 435.895C457.537 445.351 451.172 454.807 444.741 464.263C444.412 464.789 445.266 465.314 445.594 464.789C452.025 455.333 458.391 445.877 464.822 436.421C465.216 435.83 464.362 435.37 463.969 435.895Z" fill="#191919"/>
<path d="M355.294 421.58C363.497 418.1 372.356 420.07 381.019 419.938C388.303 419.873 395.259 417.837 401.494 414.16C402.019 413.831 401.559 412.978 400.969 413.306C393.291 417.837 385.153 419.282 376.359 418.888C369.009 418.559 361.725 417.837 354.769 420.792C354.244 420.989 354.703 421.843 355.294 421.58Z" fill="#191919"/>
<path d="M377.409 417.509C391.453 409.563 397.95 392.818 412.584 385.792C413.175 385.529 412.65 384.675 412.059 384.938C397.359 392.03 390.928 408.709 376.884 416.655C376.359 416.983 376.819 417.837 377.409 417.509Z" fill="#191919"/>
<path d="M395.259 370.688C392.831 368.784 393.225 365.698 394.603 363.268C395.259 362.086 396.244 360.838 397.359 360.116C399.394 358.803 401.297 359.853 402.872 361.232C403.331 361.626 404.053 360.97 403.594 360.51C400.313 357.752 397.228 358.015 394.538 361.561C392.372 364.45 391.256 368.784 394.538 371.411C395.063 371.805 395.784 371.082 395.259 370.688Z" fill="#191919"/>
<path d="M597.384 322.686C579.403 342.649 574.547 364.581 571.922 376.992C567.131 399.976 572.184 409.169 572.513 452.837C572.644 471.421 571.856 486.459 571.266 495.915C575.334 499.067 600.534 517.847 634.2 511.675C659.138 507.144 674.166 491.515 678.891 486.196C680.006 479.958 681.581 470.764 683.419 459.601C693.131 399.385 697.922 368.85 691.884 346.983C688.275 333.718 679.35 312.705 654.019 290.969C643.388 293.202 617.859 300.031 597.384 322.686Z" fill="#EF815F"/>
<path opacity="0.19" d="M615.694 310.603C621.928 329.253 625.275 345.21 627.244 356.898C632.428 387.827 640.237 434.188 618.253 479.104C611.231 493.419 603.028 503.926 597.253 510.427C604.866 512.2 619.959 514.63 637.941 509.967C659.334 504.451 672.722 492.04 678.234 486.393C682.5 461.965 685.912 441.017 688.537 424.666C693.066 395.904 694.116 387.171 693.656 374.891C693.131 359.131 692.409 342.583 682.959 324.722C673.903 307.648 661.172 297.404 653.363 292.151C646.997 293.267 638.006 295.631 628.491 301.147C623.241 304.299 618.975 307.648 615.694 310.603Z" fill="#6C6D6D"/>
<path opacity="0.18" d="M690.244 341.926C689.062 341.992 691.556 360.182 687.684 385.266C680.531 431.693 657.562 463.869 648.703 475.295C641.287 484.817 629.672 497.95 612.675 510.887C618.778 511.806 626.916 512.2 636.234 510.427C658.35 506.29 672.394 492.697 677.775 486.853C679.153 478.841 681.384 466.299 684.206 450.802C690.834 414.554 692.147 410.22 693.197 398.925C696.084 368.127 691.622 341.926 690.244 341.926Z" fill="#6C6D6D"/>
<path d="M481.753 390.717C480.506 389.863 478.012 388.287 478.275 386.974C478.8 384.872 486.347 384.544 491.794 385.463C495.469 386.054 502.163 387.959 509.184 394.591C501.309 395.707 489.956 396.036 481.753 390.717Z" fill="white" stroke="#191919" stroke-width="2" stroke-miterlimit="10"/>
<path d="M667.012 327.808C653.822 323.934 638.4 341.729 637.022 343.437C631.772 349.675 630.525 354.14 625.603 366.223C613.659 395.773 607.425 410.679 595.612 418.428C585.047 425.389 573.956 425.651 571.003 425.651C558.6 425.586 548.362 419.413 528.412 407.068C511.612 396.627 509.906 393.475 500.194 390.848C495.272 389.535 480.834 385.595 469.612 393.278C462.459 398.137 458.062 407.199 460.031 409.497C462.525 412.452 475.912 405.492 475.978 405.754C476.044 405.886 472.106 407.002 468.562 410.154C466.791 411.664 463.641 414.948 464.362 416.13C465.675 418.362 477.619 408.118 488.25 411.927C495.469 414.488 495.862 421.383 504.328 424.075C509.316 425.651 514.041 424.798 517.059 423.944C521.128 430.051 528.019 438.785 538.65 446.73C545.016 451.458 567.459 467.744 598.631 465.314C631.706 462.753 651.787 440.886 658.022 434.122C661.631 430.248 687.815 400.895 683.812 362.677C683.222 356.439 680.662 331.879 667.012 327.808Z" fill="#FBCBCB" stroke="#191919" stroke-width="2" stroke-miterlimit="10"/>
<path opacity="0.25" d="M665.569 327.808C660.581 329.45 666.816 347.245 661.762 370.557C656.972 392.949 644.372 408.053 638.662 414.948C630.984 424.207 620.944 436.289 603.816 442.462C580.847 450.736 555.056 444.892 537.797 434.057C532.678 430.773 528.347 422.302 516.862 415.67C511.875 412.781 507.872 411.336 503.081 409.563C491.531 405.36 481.162 401.552 470.597 404.901C465.544 406.477 461.016 409.497 461.278 410.023C461.541 410.614 467.381 408.709 472.631 406.936C465.609 413.569 464.297 415.604 464.625 416.13C465.019 416.655 467.119 415.276 472.041 413.569C477.422 411.664 481.162 410.417 485.494 411.467C487.659 411.993 489.234 412.978 490.219 413.569C493.828 415.801 494.419 417.968 497.962 420.529C500.128 422.105 502.097 422.893 503.147 423.287C505.312 424.141 509.906 425.52 516.403 424.338C520.866 430.773 541.537 459.273 577.828 464.526C596.531 467.218 611.297 462.622 617.137 460.717C649.162 450.342 665.372 425.52 669.572 418.625C682.566 397.349 691.425 364.122 678.037 340.219C674.887 334.243 668.981 326.692 665.569 327.808Z" fill="#6C6D6D"/>
<path d="M461.212 409.694C464.691 406.083 468.759 403.456 473.484 401.88C474.403 401.552 474.009 400.173 473.091 400.435C468.169 402.143 463.772 404.901 460.163 408.644C459.506 409.366 460.556 410.417 461.212 409.694Z" fill="#191919"/>
<path d="M463.575 400.895C467.053 397.021 471.909 395.51 476.766 394.131C477.684 393.869 477.291 392.424 476.372 392.687C471.319 394.197 466.2 395.839 462.591 399.844C461.869 400.567 462.919 401.552 463.575 400.895Z" fill="#191919"/>
<path opacity="0.29" d="M681.778 356.045C679.547 362.874 675.938 372.724 670.622 384.15C660.056 406.674 650.541 426.965 631.969 441.346C609.066 459.076 581.634 460.586 566.212 459.864C577.041 464.263 586.031 465.183 591.741 465.314C635.184 466.233 665.634 425.06 675.084 406.542C676.725 403.259 680.138 396.43 682.106 386.711C684.666 373.643 683.156 362.677 681.778 356.045Z" fill="#6C6D6D"/>
<path opacity="0.26" d="M489.825 411.27C493.5 413.831 498.684 416.852 505.312 419.216C510.563 421.055 515.353 421.974 519.159 422.434C508.594 425.914 503.672 424.535 501.112 422.434C499.537 421.12 497.897 418.691 492.975 414.16C491.728 412.912 490.613 411.927 489.825 411.27Z" fill="#6C6D6D"/>
<path d="M565.294 195.358C564.572 199.561 563.85 203.764 563.259 208.163C560.7 226.025 559.65 242.901 559.584 258.595C563.194 258.201 566.737 257.807 570.347 257.479C569.953 260.959 568.837 273.699 576.975 286.307C584.653 298.192 595.678 302.526 599.091 303.708C598.697 310.144 598.369 316.513 597.975 322.949C605.062 316.645 614.709 309.224 626.981 302.592C636.366 297.536 645.225 294.055 652.772 291.691C644.306 281.185 641.091 271.269 639.712 265.556C637.35 255.706 637.809 247.235 638.269 239.749C638.728 232.066 639.844 225.696 640.828 221.231C643.912 207.178 635.841 184.917 619.762 176.906C603.881 168.96 580.191 175.658 565.294 195.358Z" fill="#FBCBCB" stroke="#161616" stroke-width="2" stroke-miterlimit="10"/>
<path d="M568.837 257.939C570.675 257.676 572.578 257.479 574.416 257.282C575.072 257.216 575.072 256.231 574.416 256.297C572.447 256.494 570.544 256.757 568.575 257.019C567.984 257.019 568.247 258.004 568.837 257.939Z" fill="#161616"/>
<path d="M628.031 205.537C620.091 207.572 618.647 214.467 608.606 228.848C598.434 243.426 592.003 252.554 580.519 257.873C573.103 261.288 569.428 260.368 566.147 264.768C560.503 272.385 564.309 284.928 567.656 291.363C571.528 298.783 577.434 303.249 582.291 306.926C586.95 310.406 591.216 312.705 594.234 314.084C591.019 309.159 590.822 307.648 591.216 307.189C592.266 306.138 596.728 311.785 601.978 311.063C603.487 310.866 606.178 310.012 612.15 300.622C616.219 294.252 618.975 289.853 620.812 283.549C624.816 270.021 619.172 266.344 620.812 248.548C621.075 245.856 622.912 224.777 630.394 223.398C633.084 222.873 635.841 225.105 637.153 226.813C639.909 230.424 639.581 236.203 636.169 241.194C637.284 240.406 647.981 233.182 647.85 221.428C647.85 219.589 647.784 212.826 642.666 208.426C636.825 203.435 628.687 205.405 628.031 205.537Z" fill="#161616" stroke="#161616" stroke-width="2" stroke-miterlimit="10"/>
<path d="M575.138 235.415C576.66 235.415 577.894 233.21 577.894 230.49C577.894 227.77 576.66 225.565 575.138 225.565C573.615 225.565 572.381 227.77 572.381 230.49C572.381 233.21 573.615 235.415 575.138 235.415Z" fill="#161616"/>
<path d="M554.138 237.713C555.66 237.713 556.894 235.508 556.894 232.788C556.894 230.068 555.66 227.863 554.138 227.863C552.615 227.863 551.381 230.068 551.381 232.788C551.381 235.508 552.615 237.713 554.138 237.713Z" fill="#161616"/>
<path d="M550.003 224.711C551.775 222.676 554.531 222.479 556.5 224.449C557.419 225.368 558.797 223.923 557.878 223.07C555.187 220.443 551.053 220.509 548.559 223.332C547.838 224.317 549.216 225.696 550.003 224.711Z" fill="#161616"/>
<path d="M571.528 221.297C573.825 219.392 576.844 219.655 578.813 221.822C579.666 222.741 581.044 221.362 580.191 220.443C577.434 217.488 573.169 217.357 570.084 219.918C569.166 220.706 570.544 222.085 571.528 221.297Z" fill="#161616"/>
<path d="M563.062 203.173C563.784 198.445 565.622 190.696 570.675 182.685C572.447 179.861 576.253 173.885 582.291 169.814C593.841 162.131 611.625 162.722 624.553 172.178C637.219 181.437 643.519 197.985 640.762 214.402C614.841 210.724 588.984 206.981 563.062 203.173Z" fill="#DF6F4C"/>
<path d="M520.669 203.764C560.503 208.886 600.403 214.008 640.237 219.064C643.978 219.524 643.978 213.614 640.237 213.154C600.403 208.032 560.503 202.91 520.669 197.854C516.928 197.328 516.928 203.238 520.669 203.764Z" fill="#DF6F4C"/>
<path d="M596.794 165.02C607.031 167.253 614.775 175.527 616.088 185.443C617.269 194.111 613.463 202.91 606.244 208.295C617.597 209.805 629.016 211.381 640.369 212.891C640.959 209.871 641.484 205.274 640.763 199.889C639.056 187.281 631.772 179.204 629.409 176.775C626.85 174.148 617.794 165.349 604.341 164.561C601.256 164.429 598.631 164.692 596.794 165.02Z" fill="#AD4220"/>
</svg>
