<svg width="1317" height="878" viewBox="0 0 1317 878" fill="none" xmlns="http://www.w3.org/2000/svg">
<path d="M428.815 260.415H206.435V108.293H428.815V260.415ZM208.191 258.659H427.059V110.049H208.191V258.659Z" fill="#EBEBEB"/>
<path d="M223.82 118.091C223.82 118.966 223.56 119.822 223.074 120.549C222.588 121.277 221.897 121.844 221.088 122.179C220.279 122.514 219.39 122.602 218.531 122.431C217.673 122.26 216.884 121.839 216.266 121.22C215.647 120.601 215.225 119.813 215.055 118.954C214.884 118.096 214.971 117.206 215.306 116.398C215.641 115.589 216.208 114.898 216.936 114.412C217.664 113.925 218.519 113.666 219.395 113.666C220.568 113.666 221.694 114.132 222.524 114.962C223.354 115.792 223.82 116.917 223.82 118.091V118.091Z" fill="#A6A6A6"/>
<path d="M241.889 118.091C241.889 118.966 241.629 119.822 241.143 120.549C240.657 121.277 239.966 121.844 239.157 122.179C238.349 122.514 237.459 122.602 236.601 122.431C235.742 122.26 234.954 121.839 234.335 121.22C233.716 120.601 233.295 119.813 233.124 118.954C232.953 118.096 233.041 117.206 233.376 116.398C233.711 115.589 234.278 114.898 235.005 114.412C235.733 113.925 236.589 113.666 237.464 113.666C238.637 113.666 239.763 114.132 240.593 114.962C241.423 115.792 241.889 116.917 241.889 118.091V118.091Z" fill="#EBEBEB"/>
<path d="M259.976 118.091C259.979 118.971 259.721 119.833 259.234 120.566C258.748 121.299 258.054 121.871 257.241 122.21C256.429 122.548 255.534 122.638 254.671 122.467C253.807 122.296 253.014 121.872 252.392 121.25C251.769 120.628 251.346 119.834 251.175 118.971C251.004 118.108 251.094 117.213 251.432 116.4C251.77 115.588 252.343 114.894 253.076 114.407C253.809 113.921 254.671 113.662 255.551 113.666C256.724 113.666 257.85 114.132 258.68 114.962C259.51 115.792 259.976 116.917 259.976 118.091V118.091Z" fill="#FAA286"/>
<path d="M427.937 125.87H207.313V127.626H427.937V125.87Z" fill="#EBEBEB"/>
<path d="M1156.34 658.869H1154.59V437.929L1201.53 373.87V254.146H1203.28V374.432L1156.34 438.508V658.869Z" fill="#EBEBEB"/>
<path d="M1202.4 255.094C1201.4 255.094 1200.42 254.797 1199.59 254.241C1198.76 253.684 1198.11 252.893 1197.73 251.968C1197.35 251.043 1197.25 250.025 1197.44 249.044C1197.64 248.062 1198.12 247.161 1198.83 246.455C1199.54 245.748 1200.45 245.268 1201.43 245.075C1202.41 244.882 1203.43 244.984 1204.35 245.37C1205.27 245.755 1206.06 246.406 1206.62 247.24C1207.17 248.074 1207.46 249.053 1207.46 250.054C1207.46 250.718 1207.33 251.375 1207.08 251.987C1206.82 252.6 1206.45 253.156 1205.98 253.624C1205.51 254.093 1204.95 254.463 1204.34 254.716C1203.72 254.968 1203.07 255.097 1202.4 255.094V255.094ZM1202.4 246.753C1201.75 246.753 1201.11 246.947 1200.57 247.31C1200.03 247.672 1199.6 248.188 1199.35 248.791C1199.1 249.394 1199.04 250.058 1199.17 250.699C1199.29 251.339 1199.61 251.927 1200.07 252.389C1200.53 252.851 1201.12 253.165 1201.76 253.292C1202.4 253.42 1203.06 253.354 1203.67 253.104C1204.27 252.855 1204.79 252.431 1205.15 251.889C1205.51 251.346 1205.7 250.707 1205.7 250.054C1205.7 249.179 1205.36 248.339 1204.74 247.72C1204.12 247.101 1203.28 246.753 1202.4 246.753V246.753Z" fill="#EBEBEB"/>
<path d="M1168.44 658.869H1166.69V445.673L1166.84 445.427L1213.62 381.596V298.046H1215.38V382.176L1168.44 446.235V658.869Z" fill="#EBEBEB"/>
<path d="M1214.5 298.994C1213.5 298.998 1212.52 298.704 1211.69 298.149C1210.85 297.595 1210.2 296.805 1209.82 295.88C1209.43 294.956 1209.33 293.937 1209.52 292.955C1209.72 291.972 1210.2 291.069 1210.91 290.361C1211.62 289.653 1212.52 289.171 1213.5 288.976C1214.49 288.781 1215.5 288.883 1216.43 289.268C1217.35 289.653 1218.14 290.304 1218.7 291.138C1219.25 291.973 1219.55 292.953 1219.54 293.954C1219.54 295.29 1219 296.569 1218.06 297.513C1217.12 298.457 1215.84 298.99 1214.5 298.994V298.994ZM1214.5 290.653C1213.85 290.65 1213.21 290.84 1212.66 291.201C1212.12 291.562 1211.69 292.076 1211.44 292.679C1211.19 293.282 1211.12 293.946 1211.24 294.588C1211.37 295.229 1211.68 295.819 1212.14 296.283C1212.61 296.746 1213.19 297.062 1213.83 297.191C1214.47 297.32 1215.14 297.255 1215.74 297.006C1216.35 296.757 1216.86 296.334 1217.23 295.79C1217.59 295.247 1217.79 294.608 1217.79 293.954C1217.79 293.082 1217.44 292.245 1216.83 291.626C1216.21 291.008 1215.37 290.658 1214.5 290.653V290.653Z" fill="#EBEBEB"/>
<path d="M1144.7 366.653H1142.95V658.869H1144.7V366.653Z" fill="#EBEBEB"/>
<path d="M1143.82 367.531C1142.82 367.534 1141.84 367.24 1141.01 366.686C1140.17 366.131 1139.52 365.342 1139.14 364.417C1138.75 363.492 1138.65 362.474 1138.84 361.491C1139.04 360.509 1139.52 359.606 1140.23 358.898C1140.94 358.189 1141.84 357.707 1142.82 357.513C1143.81 357.318 1144.82 357.42 1145.75 357.805C1146.67 358.19 1147.46 358.84 1148.02 359.675C1148.57 360.509 1148.87 361.489 1148.86 362.491C1148.86 363.826 1148.33 365.105 1147.38 366.05C1146.44 366.994 1145.16 367.526 1143.82 367.531V367.531ZM1143.82 359.19C1143.17 359.186 1142.53 359.377 1141.98 359.738C1141.44 360.098 1141.01 360.613 1140.76 361.216C1140.51 361.818 1140.44 362.483 1140.57 363.124C1140.69 363.766 1141 364.356 1141.47 364.819C1141.93 365.283 1142.51 365.599 1143.16 365.728C1143.8 365.856 1144.46 365.792 1145.06 365.543C1145.67 365.293 1146.19 364.87 1146.55 364.327C1146.91 363.784 1147.11 363.145 1147.11 362.491C1147.11 361.619 1146.76 360.782 1146.15 360.163C1145.53 359.544 1144.7 359.194 1143.82 359.19V359.19Z" fill="#EBEBEB"/>
<path d="M1133.48 658.869H1131.72V510.575L1099.87 450.467V342.508H1101.63V450.045L1133.48 510.153V658.869Z" fill="#EBEBEB"/>
<path d="M1100.73 343.386C1099.73 343.386 1098.75 343.089 1097.92 342.533C1097.09 341.978 1096.44 341.188 1096.06 340.264C1095.68 339.34 1095.58 338.323 1095.77 337.342C1095.97 336.361 1096.45 335.46 1097.15 334.752C1097.86 334.045 1098.76 333.564 1099.74 333.368C1100.73 333.173 1101.74 333.273 1102.67 333.656C1103.59 334.039 1104.38 334.687 1104.94 335.519C1105.49 336.351 1105.79 337.328 1105.79 338.329C1105.79 339.67 1105.26 340.956 1104.31 341.905C1103.36 342.853 1102.07 343.386 1100.73 343.386V343.386ZM1100.73 335.045C1100.08 335.045 1099.44 335.239 1098.9 335.602C1098.35 335.966 1097.93 336.483 1097.68 337.087C1097.43 337.691 1097.37 338.356 1097.49 338.997C1097.62 339.637 1097.94 340.226 1098.4 340.687C1098.87 341.148 1099.46 341.461 1100.1 341.586C1100.74 341.711 1101.4 341.644 1102.01 341.391C1102.61 341.138 1103.12 340.713 1103.48 340.167C1103.85 339.622 1104.04 338.982 1104.03 338.329C1104.03 337.896 1103.95 337.467 1103.78 337.068C1103.61 336.668 1103.37 336.305 1103.06 336C1102.76 335.695 1102.39 335.454 1101.99 335.29C1101.59 335.126 1101.16 335.042 1100.73 335.045V335.045Z" fill="#EBEBEB"/>
<path d="M1122.33 658.869H1120.57V517.019L1083.01 450.572V379.366H1084.77V450.098L1122.33 516.563V658.869Z" fill="#EBEBEB"/>
<path d="M1083.89 380.244C1082.89 380.248 1081.91 379.954 1081.07 379.399C1080.24 378.845 1079.59 378.055 1079.2 377.13C1078.82 376.206 1078.72 375.187 1078.91 374.205C1079.11 373.222 1079.59 372.319 1080.3 371.611C1081.01 370.903 1081.91 370.421 1082.89 370.226C1083.87 370.032 1084.89 370.133 1085.82 370.518C1086.74 370.903 1087.53 371.554 1088.09 372.388C1088.64 373.223 1088.93 374.203 1088.93 375.205C1088.93 376.54 1088.39 377.819 1087.45 378.763C1086.51 379.707 1085.23 380.24 1083.89 380.244V380.244ZM1083.89 371.903C1083.24 371.9 1082.6 372.09 1082.05 372.451C1081.51 372.812 1081.08 373.326 1080.83 373.929C1080.58 374.532 1080.51 375.196 1080.63 375.838C1080.76 376.479 1081.07 377.069 1081.53 377.533C1081.99 377.996 1082.58 378.312 1083.22 378.441C1083.86 378.57 1084.53 378.506 1085.13 378.256C1085.74 378.007 1086.25 377.584 1086.62 377.04C1086.98 376.497 1087.17 375.858 1087.17 375.205C1087.17 374.332 1086.83 373.495 1086.21 372.876C1085.6 372.258 1084.76 371.908 1083.89 371.903V371.903Z" fill="#EBEBEB"/>
<path d="M168.752 658.869H166.996V543.851L120.058 479.792V412.186H121.814V479.212L168.752 543.289V658.869Z" fill="#EBEBEB"/>
<path d="M120.936 413.134C119.934 413.138 118.954 412.843 118.119 412.289C117.285 411.735 116.634 410.945 116.249 410.02C115.864 409.095 115.763 408.077 115.957 407.095C116.152 406.112 116.634 405.209 117.342 404.501C118.05 403.792 118.953 403.31 119.936 403.116C120.919 402.921 121.937 403.023 122.862 403.408C123.786 403.793 124.576 404.444 125.13 405.278C125.685 406.112 125.979 407.093 125.975 408.094C125.975 409.431 125.444 410.713 124.499 411.658C123.554 412.603 122.272 413.134 120.936 413.134V413.134ZM120.936 404.793C120.282 404.79 119.642 404.98 119.097 405.341C118.552 405.702 118.126 406.216 117.873 406.819C117.621 407.422 117.553 408.086 117.678 408.728C117.804 409.369 118.117 409.959 118.578 410.422C119.039 410.886 119.627 411.202 120.268 411.331C120.908 411.46 121.573 411.395 122.177 411.146C122.782 410.897 123.298 410.474 123.662 409.93C124.025 409.387 124.219 408.748 124.219 408.094C124.219 407.222 123.874 406.385 123.259 405.766C122.643 405.148 121.808 404.798 120.936 404.793V404.793Z" fill="#EBEBEB"/>
<path d="M156.653 658.869H154.897V551.595L107.959 487.536V456.086H109.715V486.956L156.653 551.033V658.869Z" fill="#EBEBEB"/>
<path d="M108.872 457.034C107.871 457.034 106.893 456.737 106.06 456.181C105.228 455.624 104.58 454.833 104.198 453.908C103.816 452.983 103.717 451.965 103.913 450.984C104.11 450.002 104.593 449.101 105.302 448.395C106.011 447.688 106.914 447.208 107.896 447.015C108.878 446.821 109.896 446.924 110.819 447.31C111.743 447.695 112.532 448.346 113.085 449.18C113.639 450.014 113.933 450.993 113.929 451.994C113.925 453.333 113.39 454.614 112.442 455.559C111.494 456.504 110.21 457.034 108.872 457.034V457.034ZM108.872 448.693C108.219 448.693 107.581 448.887 107.038 449.25C106.495 449.612 106.072 450.128 105.822 450.731C105.572 451.334 105.507 451.998 105.634 452.639C105.761 453.279 106.076 453.867 106.538 454.329C106.999 454.791 107.588 455.105 108.228 455.232C108.868 455.36 109.532 455.294 110.135 455.044C110.739 454.795 111.254 454.371 111.617 453.829C111.98 453.286 112.173 452.647 112.173 451.994C112.173 451.119 111.825 450.279 111.206 449.66C110.587 449.041 109.748 448.693 108.872 448.693V448.693Z" fill="#EBEBEB"/>
<path d="M180.394 472.013H178.638V658.869H180.394V472.013Z" fill="#EBEBEB"/>
<path d="M179.516 472.891C178.515 472.891 177.536 472.594 176.704 472.037C175.872 471.481 175.224 470.69 174.842 469.765C174.46 468.84 174.361 467.822 174.557 466.84C174.754 465.859 175.237 464.958 175.946 464.251C176.655 463.545 177.558 463.064 178.54 462.871C179.522 462.678 180.54 462.781 181.463 463.166C182.387 463.552 183.176 464.203 183.729 465.037C184.283 465.871 184.577 466.85 184.573 467.851C184.568 469.189 184.034 470.471 183.086 471.416C182.138 472.36 180.854 472.891 179.516 472.891ZM179.516 464.55C178.863 464.55 178.225 464.743 177.682 465.106C177.139 465.469 176.716 465.985 176.466 466.588C176.216 467.191 176.151 467.855 176.278 468.495C176.405 469.136 176.72 469.724 177.182 470.185C177.643 470.647 178.231 470.962 178.872 471.089C179.512 471.216 180.176 471.151 180.779 470.901C181.382 470.651 181.898 470.228 182.261 469.685C182.624 469.142 182.817 468.504 182.817 467.851C182.817 466.976 182.469 466.136 181.85 465.517C181.231 464.898 180.391 464.55 179.516 464.55V464.55Z" fill="#EBEBEB"/>
<path d="M191.615 658.869H189.859V562.833L189.946 562.622L221.713 502.725V395.188H223.469V503.147L223.381 503.34L191.615 563.255V658.869Z" fill="#EBEBEB"/>
<path d="M222.591 396.066C221.59 396.066 220.613 395.769 219.781 395.214C218.949 394.658 218.301 393.868 217.918 392.944C217.535 392.02 217.435 391.003 217.63 390.022C217.826 389.041 218.307 388.14 219.015 387.433C219.722 386.725 220.623 386.244 221.604 386.048C222.585 385.853 223.602 385.953 224.526 386.336C225.45 386.719 226.24 387.367 226.796 388.199C227.351 389.031 227.648 390.008 227.648 391.009C227.648 392.35 227.115 393.636 226.167 394.585C225.218 395.533 223.932 396.066 222.591 396.066V396.066ZM222.591 387.725C221.937 387.725 221.298 387.919 220.755 388.282C220.211 388.646 219.788 389.163 219.539 389.767C219.29 390.371 219.225 391.036 219.354 391.677C219.483 392.318 219.799 392.906 220.262 393.367C220.726 393.828 221.316 394.141 221.957 394.266C222.599 394.391 223.263 394.324 223.866 394.071C224.469 393.818 224.983 393.393 225.344 392.847C225.705 392.302 225.895 391.662 225.892 391.009C225.892 390.576 225.806 390.147 225.64 389.748C225.474 389.348 225.231 388.986 224.924 388.68C224.617 388.375 224.253 388.134 223.853 387.97C223.452 387.806 223.023 387.723 222.591 387.725V387.725Z" fill="#EBEBEB"/>
<path d="M202.765 658.869H201.009V569.243L201.115 569.032L238.57 502.778V432.046H240.326V503.252L240.203 503.445L202.765 569.699V658.869Z" fill="#EBEBEB"/>
<path d="M239.448 432.924C238.446 432.928 237.466 432.634 236.632 432.079C235.798 431.525 235.147 430.735 234.762 429.81C234.377 428.886 234.275 427.867 234.47 426.885C234.664 425.902 235.146 424.999 235.855 424.291C236.563 423.583 237.466 423.101 238.448 422.906C239.431 422.711 240.449 422.813 241.374 423.198C242.299 423.583 243.089 424.234 243.643 425.068C244.197 425.903 244.491 426.883 244.488 427.885C244.483 429.22 243.951 430.499 243.007 431.443C242.063 432.387 240.783 432.92 239.448 432.924V432.924ZM239.448 424.583C238.794 424.58 238.155 424.77 237.609 425.131C237.064 425.492 236.638 426.006 236.386 426.609C236.133 427.212 236.065 427.876 236.191 428.518C236.316 429.159 236.629 429.749 237.09 430.213C237.551 430.676 238.139 430.992 238.78 431.121C239.421 431.25 240.086 431.185 240.69 430.936C241.294 430.687 241.811 430.264 242.174 429.72C242.538 429.177 242.732 428.538 242.732 427.885C242.732 427.012 242.387 426.175 241.771 425.556C241.156 424.938 240.321 424.588 239.448 424.583V424.583Z" fill="#EBEBEB"/>
<path d="M1204.62 224.329L1216.91 204.574L1210.87 200.834C1209.99 200.287 1209.28 199.502 1208.83 198.57C1208.37 197.638 1208.19 196.596 1208.3 195.566C1208.4 194.395 1208.43 193.224 1208.41 192.054C1208.38 191.035 1208.63 190.027 1209.14 189.143C1209.65 188.259 1210.39 187.534 1211.29 187.049L1217.56 183.678L1206.37 163.308L1200.1 166.68C1199.2 167.155 1198.18 167.371 1197.16 167.303C1196.14 167.234 1195.16 166.885 1194.33 166.293C1193.38 165.643 1192.39 165.029 1191.38 164.537C1190.47 164.057 1189.72 163.334 1189.21 162.45C1188.69 161.566 1188.43 160.555 1188.46 159.533L1188.69 152.403L1165.46 151.683L1165.23 158.83C1165.19 159.853 1164.87 160.845 1164.3 161.695C1163.73 162.544 1162.93 163.219 1162 163.642C1161.47 163.887 1160.96 164.133 1160.47 164.414C1159.98 164.695 1159.47 164.959 1158.98 165.257C1158.11 165.791 1157.11 166.074 1156.09 166.074C1155.07 166.074 1154.07 165.791 1153.2 165.257L1147.11 161.482L1134.81 181.237L1140.87 185.012C1141.76 185.558 1142.46 186.342 1142.92 187.275C1143.37 188.207 1143.55 189.249 1143.44 190.28C1143.34 191.448 1143.3 192.62 1143.33 193.792C1143.36 194.815 1143.1 195.825 1142.59 196.712C1142.08 197.598 1141.33 198.326 1140.43 198.814L1134.27 201.94L1145.26 222.433L1151.53 219.079C1152.44 218.6 1153.45 218.382 1154.47 218.447C1155.49 218.512 1156.47 218.858 1157.31 219.447C1158.26 220.085 1159.25 220.672 1160.26 221.203C1161.16 221.684 1161.91 222.406 1162.43 223.291C1162.94 224.175 1163.2 225.185 1163.17 226.208L1162.96 233.337L1186.2 234.057L1186.42 226.928C1186.46 225.907 1186.78 224.917 1187.36 224.07C1187.93 223.223 1188.72 222.552 1189.65 222.134L1191.18 221.361L1192.68 220.501C1193.55 219.967 1194.55 219.684 1195.57 219.684C1196.6 219.684 1197.6 219.967 1198.47 220.501L1204.62 224.329ZM1184.95 209.666C1181.63 211.446 1177.85 212.2 1174.1 211.834C1170.35 211.468 1166.79 209.998 1163.88 207.611C1160.96 205.223 1158.82 202.024 1157.73 198.42C1156.63 194.815 1156.62 190.966 1157.72 187.359C1158.81 183.752 1160.94 180.55 1163.85 178.156C1166.76 175.763 1170.32 174.286 1174.06 173.913C1177.81 173.539 1181.59 174.286 1184.92 176.058C1188.24 177.831 1190.97 180.55 1192.75 183.871C1193.92 186.082 1194.66 188.503 1194.9 190.997C1195.14 193.491 1194.89 196.008 1194.15 198.404C1193.42 200.8 1192.22 203.028 1190.63 204.961C1189.03 206.893 1187.07 208.492 1184.86 209.666H1184.95Z" fill="#EBEBEB"/>
<path d="M135.528 399.947L149.576 391.799L147.083 387.479C146.725 386.857 146.549 386.148 146.574 385.431C146.599 384.714 146.824 384.018 147.223 383.423C147.668 382.744 148.072 382.041 148.435 381.315C148.76 380.665 149.262 380.119 149.883 379.741C150.504 379.362 151.219 379.165 151.947 379.173H156.934V362.877H151.947C151.219 362.885 150.504 362.689 149.883 362.31C149.262 361.931 148.76 361.385 148.435 360.735C148.072 360.009 147.668 359.307 147.223 358.628C146.824 358.032 146.599 357.337 146.574 356.62C146.549 355.903 146.725 355.194 147.083 354.572L149.576 350.252L135.528 342.104L133.035 346.441C132.682 347.051 132.167 347.551 131.547 347.886C130.927 348.221 130.226 348.377 129.523 348.338H127.047C126.345 348.375 125.647 348.22 125.028 347.888C124.409 347.557 123.893 347.063 123.535 346.459L121.023 342.104L106.975 350.252L109.469 354.589C109.826 355.211 110.002 355.921 109.978 356.637C109.953 357.354 109.728 358.05 109.329 358.646C108.887 359.32 108.483 360.017 108.117 360.735C107.791 361.385 107.289 361.931 106.668 362.31C106.047 362.689 105.332 362.885 104.605 362.877H99.5652V379.173H104.552C105.28 379.165 105.994 379.362 106.615 379.741C107.236 380.119 107.738 380.665 108.064 381.315C108.43 382.033 108.835 382.731 109.276 383.405C109.675 384.004 109.899 384.703 109.924 385.422C109.949 386.142 109.773 386.854 109.416 387.479L106.923 391.799L120.971 399.947L123.482 395.609C123.839 395.003 124.355 394.507 124.974 394.172C125.593 393.838 126.291 393.679 126.994 393.713C127.38 393.713 127.784 393.713 128.188 393.713C128.592 393.713 128.996 393.713 129.4 393.713C130.102 393.681 130.8 393.841 131.418 394.175C132.037 394.509 132.553 395.005 132.912 395.609L135.528 399.947ZM128.188 384.371C125.549 384.367 122.971 383.582 120.778 382.113C118.586 380.645 116.878 378.559 115.871 376.12C114.863 373.681 114.602 370.999 115.119 368.411C115.635 365.823 116.908 363.447 118.775 361.582C120.642 359.718 123.02 358.448 125.608 357.935C128.197 357.421 130.879 357.687 133.317 358.697C135.754 359.708 137.838 361.418 139.303 363.613C140.769 365.807 141.551 368.387 141.551 371.025C141.553 372.78 141.209 374.518 140.538 376.139C139.867 377.761 138.883 379.234 137.641 380.473C136.4 381.713 134.925 382.696 133.303 383.365C131.681 384.034 129.943 384.376 128.188 384.371V384.371Z" fill="#EBEBEB"/>
<path d="M1132.76 238.623L1124.63 224.575L1120.33 227.016C1119.7 227.372 1118.99 227.548 1118.27 227.523C1117.55 227.499 1116.85 227.274 1116.25 226.875C1115.58 226.43 1114.87 226.026 1114.15 225.664C1113.5 225.338 1112.95 224.836 1112.57 224.215C1112.19 223.594 1112 222.879 1112 222.152V217.165H1095.74V222.152C1095.75 222.879 1095.56 223.594 1095.18 224.215C1094.8 224.836 1094.25 225.338 1093.6 225.664C1092.87 226.029 1092.16 226.434 1091.48 226.875C1090.88 227.275 1090.19 227.499 1089.47 227.524C1088.75 227.549 1088.04 227.373 1087.42 227.016L1083.1 224.522L1074.97 238.57L1079.31 241.064C1079.92 241.432 1080.43 241.963 1080.76 242.598C1081.09 243.233 1081.25 243.947 1081.2 244.664C1081.2 245.067 1081.2 245.471 1081.2 245.858C1081.2 246.244 1081.2 246.665 1081.2 247.069C1081.24 247.772 1081.08 248.471 1080.75 249.091C1080.41 249.71 1079.92 250.225 1079.31 250.581L1074.97 253.092L1083.1 267.14L1087.44 264.647C1088.06 264.29 1088.77 264.113 1089.49 264.138C1090.2 264.163 1090.9 264.388 1091.49 264.787C1092.19 265.232 1092.89 265.636 1093.6 265.999C1094.25 266.325 1094.8 266.827 1095.18 267.448C1095.56 268.069 1095.75 268.784 1095.74 269.511V274.498H1112.02V269.511C1112.01 268.784 1112.21 268.069 1112.59 267.448C1112.97 266.827 1113.51 266.325 1114.16 265.999C1114.89 265.624 1115.59 265.22 1116.27 264.787C1116.87 264.388 1117.56 264.163 1118.28 264.138C1119 264.113 1119.71 264.29 1120.33 264.647L1124.67 267.14L1132.8 253.092L1128.46 250.599C1127.86 250.239 1127.36 249.722 1127.03 249.104C1126.7 248.485 1126.54 247.788 1126.58 247.087C1126.58 246.683 1126.58 246.279 1126.58 245.875C1126.58 245.471 1126.58 245.085 1126.58 244.681C1126.53 243.965 1126.69 243.249 1127.02 242.614C1127.36 241.979 1127.86 241.448 1128.48 241.081L1132.76 238.623ZM1117.18 245.84C1117.18 248.48 1116.4 251.061 1114.93 253.256C1113.47 255.451 1111.38 257.162 1108.94 258.171C1106.5 259.181 1103.82 259.444 1101.23 258.928C1098.64 258.412 1096.26 257.139 1094.4 255.271C1092.53 253.402 1091.26 251.023 1090.75 248.433C1090.23 245.843 1090.5 243.159 1091.51 240.721C1092.53 238.282 1094.24 236.199 1096.44 234.735C1098.63 233.271 1101.22 232.491 1103.86 232.494C1105.61 232.494 1107.34 232.84 1108.96 233.511C1110.58 234.182 1112.05 235.165 1113.29 236.404C1114.53 237.644 1115.51 239.115 1116.18 240.734C1116.84 242.353 1117.19 244.088 1117.18 245.84V245.84Z" fill="#EBEBEB"/>
<path d="M172.966 525.167C161.745 502.111 142.113 490.275 119.987 496.825C97.8618 503.375 94.4376 534.21 110.944 542.007C127.45 549.804 143.992 527.046 152.772 522.375C161.552 517.704 172.966 525.167 172.966 525.167Z" fill="#FAA286"/>
<path d="M183.818 586.504C183.818 583.729 183.66 580.937 183.555 578.163C183.367 572.614 183.168 567.065 182.958 561.516C182.624 551.384 181.5 541.445 177.356 532.068C173.643 523.586 167.44 516.433 159.568 511.558C156.631 509.765 153.456 508.394 150.138 507.484C147.16 504.461 143.364 502.373 139.216 501.478C134.092 500.437 128.826 500.306 123.657 501.092C123.626 501.103 123.6 501.123 123.581 501.15C123.562 501.177 123.551 501.209 123.551 501.241C123.551 501.274 123.562 501.306 123.581 501.333C123.6 501.36 123.626 501.38 123.657 501.391C128.583 500.749 133.586 501.102 138.373 502.427C140.425 502.995 142.414 503.772 144.308 504.745C145.532 505.381 146.705 506.109 147.82 506.922C141.724 505.573 135.359 506.156 129.61 508.59C128.4 508.328 127.16 508.222 125.923 508.274C124.304 508.326 122.697 508.556 121.129 508.959C117.928 509.863 114.867 511.204 112.033 512.945C111.875 513.033 112.033 513.279 112.191 513.191C114.977 511.668 117.962 510.539 121.059 509.837C122.562 509.502 124.088 509.279 125.624 509.17C126.479 509.148 127.335 509.172 128.188 509.24C121.889 512.156 116.826 517.207 113.894 523.499C113.894 523.674 114.07 523.815 114.14 523.639C115.886 519.991 118.431 516.783 121.586 514.254C124.742 511.725 128.427 509.939 132.367 509.029C132.859 508.906 133.351 508.836 133.86 508.748C133.681 509.489 133.546 510.239 133.456 510.996C133.315 512.12 133.122 513.226 132.894 514.332C132.449 516.62 131.863 518.878 131.138 521.093C130.385 523.326 129.488 525.508 128.451 527.625C127.46 529.874 126.205 531.996 124.711 533.947C124.571 534.105 124.834 534.298 124.939 534.122C126.274 532.033 127.819 530.119 129.031 527.959C130.209 525.899 131.225 523.75 132.069 521.532C132.916 519.29 133.574 516.982 134.035 514.631C134.281 513.384 134.474 512.137 134.615 510.873C134.767 510.122 134.814 509.354 134.755 508.59C137.359 508.189 140.004 508.13 142.622 508.415C141.639 513.928 140.585 519.653 137.495 524.429C137.389 524.587 137.67 524.745 137.758 524.57C139.198 522.036 140.465 519.407 141.551 516.703C142.574 514.081 143.213 511.325 143.448 508.52C148.018 509.126 152.429 510.604 156.442 512.875C163.998 517.271 170.033 523.869 173.739 531.787C177.63 540.317 179.808 549.529 180.148 558.9C180.886 570.7 181.044 582.553 182.22 594.301C182.22 595.073 183.502 595.337 183.66 594.459C183.963 591.818 184.016 589.155 183.818 586.504V586.504Z" fill="#263238"/>
<path d="M157.899 509.732C157.153 508.837 156.291 508.046 155.336 507.379C154.423 506.624 153.474 505.886 152.491 505.219C150.552 503.864 148.396 502.849 146.117 502.216C145.941 502.216 145.871 502.462 146.117 502.497C148.395 503.119 150.514 504.221 152.333 505.728C153.281 506.413 154.089 507.15 155.055 507.923C155.832 508.742 156.698 509.472 157.636 510.1C157.685 510.135 157.746 510.149 157.805 510.14C157.864 510.13 157.917 510.097 157.952 510.048C157.987 509.999 158.001 509.938 157.991 509.879C157.981 509.82 157.948 509.767 157.899 509.732V509.732Z" fill="#263238"/>
<path d="M122.095 518.02C120.236 520.179 118.517 522.454 116.95 524.833C115.407 527.218 114.124 529.762 113.121 532.419C113.121 532.507 113.121 532.542 113.244 532.419C115.81 527.398 118.844 522.63 122.305 518.178C122.428 518.16 122.2 518.02 122.095 518.02Z" fill="#263238"/>
<path d="M146.222 515.807C145.986 517.25 145.561 518.655 144.958 519.987C144.34 521.269 143.624 522.502 142.815 523.674C142.815 523.674 142.815 523.832 142.956 523.78C144.881 521.55 146.103 518.8 146.468 515.878C146.538 515.702 146.257 515.632 146.222 515.807Z" fill="#263238"/>
<path d="M182.255 525.746C182.255 525.746 198.059 505.781 228.807 512.857C257.939 519.583 271.39 573.018 241.942 579.41C212.494 585.802 217.691 536.353 206.962 527.959C199.078 521.813 187.751 523.13 182.255 525.746Z" fill="#FAA286"/>
<path d="M252.478 542.042C250.484 540.283 248.372 538.664 246.156 537.196C244.083 535.767 241.819 534.638 239.431 533.842C238.237 532.021 236.898 530.301 235.427 528.696C232.73 525.788 229.61 523.301 226.173 521.321H227.086C228.706 521.234 230.33 521.234 231.95 521.321C235.221 521.527 238.428 522.324 241.415 523.674C241.59 523.674 241.713 523.481 241.538 523.411C238.507 522.107 235.337 521.152 232.09 520.566C230.508 520.285 228.904 520.144 227.297 520.145C226.436 520.145 225.541 520.145 224.733 520.303H224.241C221.447 518.892 218.501 517.802 215.461 517.054L216.322 516.826C217.823 516.495 219.341 516.243 220.87 516.071C223.921 515.749 227.001 515.814 230.036 516.264C230.229 516.264 230.282 516.001 230.036 515.983C226.96 515.614 223.86 515.491 220.764 515.614C218.167 515.678 215.583 516.014 213.055 516.615C211.21 516.276 209.345 516.058 207.471 515.965C196.777 515.526 185.117 519.477 178.532 528.257C171.947 537.037 170.666 548.785 169.507 559.409C167.711 574.189 167.317 589.105 168.33 603.959C168.33 604.837 169.63 604.679 169.665 603.853C170.069 591.245 170.508 578.655 171.719 566.099C172.264 560.269 172.896 554.439 173.862 548.68C174.563 543.724 175.983 538.897 178.076 534.351C180.347 529.693 183.954 525.818 188.436 523.218C192.926 520.654 197.927 519.113 203.081 518.705C207.711 518.325 212.372 518.765 216.848 520.004C216.709 520.9 216.709 521.813 216.848 522.709C216.955 523.846 217.179 524.97 217.516 526.062C217.855 527.087 218.284 528.08 218.798 529.03C219.377 530.084 220.079 531.032 220.729 532.033C220.729 532.191 221.08 532.033 220.957 531.857C219.699 530.06 218.886 527.99 218.587 525.817C218.393 524.784 218.27 523.74 218.218 522.691C218.218 521.901 218.218 521.111 218.218 520.32C223.084 521.802 227.629 524.185 231.616 527.344C232.354 527.941 233.074 528.574 233.776 529.223C232.762 530.152 231.887 531.223 231.177 532.402C230.06 533.953 229.09 535.605 228.28 537.336C226.861 540.746 225.904 544.331 225.435 547.995C225.446 548.026 225.466 548.053 225.493 548.072C225.52 548.091 225.552 548.101 225.584 548.101C225.617 548.101 225.649 548.091 225.676 548.072C225.703 548.053 225.723 548.026 225.734 547.995C226.31 544.451 227.498 541.034 229.246 537.898C230.061 536.345 230.97 534.844 231.968 533.403C232.494 532.665 233.021 531.927 233.583 531.225C233.882 530.856 234.215 530.47 234.496 530.049C238.102 533.596 241.045 537.759 243.188 542.341V542.341C241.733 543.869 240.52 545.61 239.589 547.503C238.486 549.48 237.53 551.534 236.726 553.649C235.238 557.728 234.012 561.899 233.056 566.134C233.067 566.165 233.087 566.192 233.114 566.211C233.141 566.23 233.173 566.24 233.206 566.24C233.238 566.24 233.27 566.23 233.297 566.211C233.324 566.192 233.344 566.165 233.355 566.134C234.291 561.875 235.748 557.746 237.692 553.842C238.605 551.928 239.589 550.032 240.607 548.171C241.663 546.439 242.625 544.651 243.487 542.815C245.533 547.284 246.724 552.096 246.999 557.003C246.999 557.196 247.297 557.179 247.297 557.003C246.732 549.302 244.374 541.84 240.414 535.211C242.275 536.001 244.154 536.774 245.963 537.74C248.263 538.965 250.404 540.469 252.337 542.218C252.425 542.393 252.618 542.165 252.478 542.042Z" fill="#263238"/>
<path d="M249.352 535.668C248.144 534.501 246.772 533.519 245.278 532.753C243.764 532.073 242.196 531.52 240.59 531.102C240.414 531.102 240.344 531.348 240.59 531.383C242.17 531.8 243.687 532.426 245.102 533.245C246.557 533.994 247.954 534.851 249.282 535.808C249.352 535.879 249.51 535.738 249.352 535.668Z" fill="#263238"/>
<path d="M197.357 499.073C197.357 499.073 200.289 463.215 226.945 451.661C249.211 441.95 261.96 466.973 246.261 482.285C233.548 494.612 213.073 489.011 197.357 499.073Z" fill="#FAA286"/>
<path d="M241.292 458.527C237.235 460.168 233.277 462.044 229.439 464.146C226.24 465.986 223.161 468.027 220.22 470.257C220.659 469.361 221.045 468.395 221.502 467.517C222.188 466.128 222.944 464.774 223.767 463.461C225.401 460.748 227.372 458.252 229.632 456.033C229.773 455.893 229.632 455.699 229.421 455.822C227.175 458.056 225.108 460.463 223.24 463.022C222.318 464.323 221.473 465.677 220.712 467.078C219.931 468.362 219.34 469.752 218.956 471.205C218.85 471.293 218.745 471.345 218.657 471.433C214.003 475.142 209.738 479.313 205.926 483.883C205.926 483.532 206.067 483.181 206.154 482.865C206.664 481.109 207.208 479.353 207.77 477.597C208.91 473.888 210.534 470.346 212.599 467.061C212.704 466.903 212.441 466.762 212.335 466.92C210.238 470.187 208.373 473.596 206.751 477.123C206.046 478.836 205.459 480.596 204.995 482.391C204.616 483.567 204.329 484.77 204.135 485.99C202.976 487.466 201.835 488.958 200.746 490.486C189.314 506.782 183.555 526.484 182.185 546.204C181.778 552.089 181.679 557.991 181.886 563.887C181.923 569.825 182.446 575.751 183.449 581.605C183.449 581.973 184.099 581.868 184.099 581.499C183.959 576.319 183.432 571.157 183.326 565.976C183.221 560.796 183.326 555.581 183.818 550.401C184.66 540.048 186.614 529.815 189.648 519.881C192.747 509.714 197.314 500.054 203.204 491.206C204.328 490.978 205.434 490.679 206.541 490.38C207.647 490.082 209.21 489.696 210.527 489.327C213.09 488.678 215.579 487.766 217.955 486.605C217.971 486.596 217.985 486.584 217.996 486.569C218.008 486.554 218.016 486.537 218.021 486.519C218.026 486.501 218.027 486.483 218.025 486.464C218.023 486.446 218.017 486.428 218.007 486.412C217.998 486.396 217.986 486.382 217.971 486.37C217.956 486.359 217.94 486.35 217.922 486.346C217.904 486.341 217.885 486.339 217.867 486.342C217.848 486.344 217.83 486.35 217.814 486.359C215.457 487.634 212.906 488.513 210.263 488.958C208.191 489.38 206.014 489.643 203.924 490.117C205.856 487.307 207.91 484.586 210.123 481.969C215.208 482.432 220.334 482.052 225.295 480.845C227.931 480.205 230.524 479.396 233.056 478.422C235.725 477.404 238.324 476.069 240.888 474.91C241.099 474.822 240.888 474.524 240.783 474.629C236.007 477.237 230.793 478.945 225.4 479.669C220.643 480.425 215.835 480.824 211.018 480.863C212.915 478.686 214.864 476.561 216.954 474.576C223.978 467.904 232.266 461.775 241.538 458.579C241.555 458.755 241.467 458.456 241.292 458.527Z" fill="#263238"/>
<path d="M219.588 458.65C218.386 460.161 217.294 461.758 216.322 463.426C215.329 465.187 214.54 467.054 213.969 468.992H214.074C214.969 467.236 215.725 465.48 216.62 463.724C217.505 462.001 218.571 460.377 219.798 458.878C219.921 458.702 219.711 458.492 219.588 458.65Z" fill="#263238"/>
<path d="M176.618 492.628C176.46 494.174 172.597 479.599 150.05 466.675C129.575 454.927 105.132 424.355 125.203 405.056C141.411 389.481 184.099 423.442 176.618 492.628Z" fill="#FAA286"/>
<path d="M192.142 576.161C191.832 560.993 190.659 545.856 188.63 530.821C186.852 517.01 183.663 503.418 179.112 490.258C177.356 485.516 175.6 480.845 173.44 476.21C173.581 474.421 173.581 472.625 173.44 470.836C173.317 468.536 173.106 466.253 172.896 463.97C172.685 461.687 172.457 459.387 172.193 457.104C171.93 454.821 171.421 452.539 171.333 450.256C171.333 450.063 170.999 450.098 171.052 450.256C171.497 452.65 171.767 455.074 171.86 457.508C172.035 459.721 172.158 461.933 172.228 464.163C172.299 466.394 172.228 468.589 172.228 470.819C172.228 471.609 172.228 472.469 172.228 473.312C170.104 468.834 167.838 464.427 165.38 460.125C166.908 450.783 164.924 441.019 163.009 431.871C163.009 431.695 162.693 431.783 162.729 431.958C163.665 436.732 164.164 441.581 164.221 446.445C164.221 450.291 164.116 454.119 164.116 457.965C163.571 457.034 163.027 456.121 162.465 455.208C159.55 450.432 156.43 445.749 153.106 441.16C153.378 438.944 153.307 436.699 152.895 434.505C152.519 432.046 151.974 429.617 151.262 427.235C150.549 424.853 149.716 422.509 148.768 420.211C147.785 417.84 146.486 415.592 145.537 413.187C145.537 412.994 145.169 413.187 145.274 413.31C146.476 415.538 147.424 417.894 148.101 420.334C148.845 422.639 149.461 424.984 149.945 427.358C150.419 429.746 150.805 432.116 151.139 434.522C151.367 436.103 151.508 437.753 151.771 439.351C146.943 432.863 141.662 426.725 135.967 420.983C135.844 420.843 135.651 420.983 135.774 421.194C144.332 430.855 151.974 441.289 158.602 452.363C158.848 452.785 159.094 453.206 159.322 453.627C158.093 452.855 156.67 452.223 155.494 451.573C153.316 450.361 151.121 449.167 148.926 448.061L142.535 444.549C141.446 443.934 140.357 443.302 139.251 442.793C137.897 442.224 136.593 441.542 135.352 440.756C135.194 440.633 135.001 440.896 135.177 441.002C137.354 442.196 139.268 443.969 141.376 445.304C143.483 446.639 145.625 447.938 147.803 449.15C151.806 451.397 156.161 452.995 160.095 455.313C162.834 460.107 165.363 465.024 167.68 470.028C165.292 468.483 162.834 467.043 160.358 465.638C158.76 464.743 157.162 463.882 155.546 463.022C153.936 462.272 152.416 461.341 151.016 460.248C150.876 460.125 150.682 460.248 150.805 460.458C153.434 462.826 156.348 464.855 159.48 466.499C162.377 468.255 165.292 469.818 168.26 471.293C170.671 476.572 172.843 481.952 174.775 487.43C184.275 514.297 187.752 542.815 189.42 571.156C189.929 579.603 190.175 588.032 190.28 596.496C190.386 604.959 189.947 613.388 189.964 621.817C189.964 622.08 190.368 622.133 190.403 621.817C191.422 614.336 191.597 606.715 191.931 599.165C192.264 591.614 192.317 583.835 192.142 576.161Z" fill="#263238"/>
<path d="M151.174 454.523C147.061 452.699 143.062 450.629 139.198 448.324C135.281 446.12 131.483 443.711 127.819 441.107C127.819 441.107 127.696 441.107 127.819 441.213C131.277 444.003 134.92 446.555 138.724 448.851C142.691 451.093 146.797 453.081 151.016 454.804C151.209 454.804 151.35 454.593 151.174 454.523Z" fill="#263238"/>
<path d="M157.706 424.144C157.373 422.827 156.969 421.545 156.53 420.263C156.542 420.242 156.549 420.218 156.549 420.193C156.549 420.169 156.542 420.144 156.53 420.123C156.249 419.385 155.95 418.665 155.652 417.946L155.546 417.682C155.546 417.542 155.424 417.419 155.371 417.278C155.318 417.138 155.283 417.278 155.371 417.278C155.459 417.278 155.511 417.77 155.599 418.033C155.626 418.17 155.661 418.305 155.704 418.437C157.193 423.446 158.308 428.558 159.041 433.732C159.041 433.89 159.304 433.89 159.304 433.732C159.079 430.492 158.543 427.282 157.706 424.144V424.144Z" fill="#263238"/>
<path d="M215.97 581.605L214.355 600.675L209.438 658.834H156.67L151.753 600.675L150.138 581.605H215.97Z" fill="#37474F"/>
<path d="M215.97 581.605L214.355 600.675H151.753L150.138 581.605H215.97Z" fill="#263238"/>
<path d="M221.151 573.966H144.975V592.264H221.151V573.966Z" fill="#37474F"/>
<path d="M89.0643 658.834L231.423 658.412L373.782 658.254L658.5 657.956L943.218 658.254L1085.58 658.412L1227.94 658.834L1085.58 659.273L943.218 659.413L658.5 659.712L373.782 659.413L231.423 659.255L89.0643 658.834Z" fill="#263238"/>
<path d="M1071.07 147.644H242.96V701.592H1071.07V147.644Z" fill="#EBEBEB"/>
<path d="M1065.05 154.405H248.983V694.832H1065.05V154.405Z" fill="#263238"/>
<path d="M1178.93 743.122H135.107V781.139H1178.93V743.122Z" fill="#DBDBDB"/>
<path d="M135.107 743.122L242.978 701.592H1071.07L1178.94 743.122H135.107Z" fill="#EBEBEB"/>
<path d="M252.601 728.389L322.208 701.592H991.841L1061.45 728.389H252.601Z" fill="#263238"/>
<path d="M1018.95 195.46H295.113V653.776H1018.95V195.46Z" fill="white"/>
<path d="M1018.95 195.46H294.499V213.091H1018.95V195.46Z" fill="#455A64"/>
<path d="M308.512 204.276C308.512 205.14 308.255 205.986 307.775 206.705C307.294 207.424 306.611 207.984 305.812 208.315C305.013 208.646 304.134 208.733 303.286 208.564C302.438 208.395 301.659 207.979 301.047 207.367C300.436 206.756 300.019 205.977 299.851 205.129C299.682 204.28 299.769 203.401 300.1 202.602C300.43 201.803 300.991 201.12 301.71 200.64C302.429 200.16 303.274 199.903 304.139 199.903C305.299 199.903 306.411 200.364 307.231 201.184C308.051 202.004 308.512 203.116 308.512 204.276Z" fill="#C7C7C7"/>
<path d="M326.37 204.275C326.37 205.14 326.114 205.986 325.633 206.705C325.153 207.424 324.47 207.984 323.671 208.315C322.872 208.646 321.993 208.733 321.145 208.564C320.297 208.395 319.517 207.979 318.906 207.367C318.294 206.756 317.878 205.977 317.709 205.128C317.541 204.28 317.627 203.401 317.958 202.602C318.289 201.803 318.849 201.12 319.569 200.64C320.288 200.159 321.133 199.903 321.998 199.903C322.573 199.901 323.142 200.012 323.674 200.231C324.205 200.45 324.688 200.772 325.095 201.178C325.501 201.585 325.823 202.068 326.042 202.599C326.261 203.131 326.372 203.701 326.37 204.275V204.275Z" fill="white"/>
<path d="M344.176 204.275C344.176 205.14 343.92 205.986 343.439 206.705C342.959 207.424 342.276 207.984 341.477 208.315C340.678 208.646 339.799 208.733 338.95 208.564C338.102 208.395 337.323 207.979 336.712 207.367C336.1 206.756 335.684 205.977 335.515 205.128C335.346 204.28 335.433 203.401 335.764 202.602C336.095 201.803 336.655 201.12 337.374 200.64C338.093 200.159 338.939 199.903 339.803 199.903C340.378 199.901 340.948 200.012 341.48 200.231C342.011 200.45 342.494 200.772 342.9 201.178C343.307 201.585 343.629 202.068 343.848 202.599C344.067 203.131 344.178 203.701 344.176 204.275V204.275Z" fill="#FAA286"/>
<path d="M1018.95 213.091H1006.1V653.759H1018.95V213.091Z" fill="#DBDBDB"/>
<path d="M1012.51 365.863C1011.63 365.863 1010.79 365.513 1010.16 364.89C1009.54 364.268 1009.19 363.424 1009.19 362.544V218.991C1009.19 218.111 1009.54 217.266 1010.16 216.644C1010.79 216.022 1011.63 215.672 1012.51 215.672V215.672C1013.39 215.672 1014.23 216.022 1014.86 216.644C1015.48 217.266 1015.83 218.111 1015.83 218.991V362.544C1015.83 363.424 1015.48 364.268 1014.86 364.89C1014.23 365.513 1013.39 365.863 1012.51 365.863V365.863Z" fill="#A6A6A6"/>
<path d="M917.651 327.389H399.35V405.952H917.651V327.389Z" fill="white"/>
<path d="M918.529 406.812H398.472V326.511H918.529V406.812ZM400.228 405.056H916.773V328.267H400.228V405.056Z" fill="#DBDBDB"/>
<path d="M445.111 348.671C446.119 351.585 446.808 354.6 447.165 357.662C447.926 363.638 447.926 369.686 447.165 375.661C446.8 378.724 446.105 381.738 445.093 384.652C444.073 381.741 443.378 378.725 443.021 375.661C442.272 369.685 442.272 363.638 443.021 357.662C443.399 354.6 444.099 351.586 445.111 348.671V348.671Z" fill="#37474F"/>
<path d="M463.092 366.653C460.184 367.689 457.168 368.396 454.102 368.76C451.12 369.139 448.117 369.327 445.111 369.322C442.105 369.336 439.101 369.149 436.12 368.76C433.05 368.405 430.029 367.71 427.112 366.688C430.033 365.682 433.053 364.988 436.12 364.616C439.102 364.236 442.105 364.048 445.111 364.054C448.117 364.063 451.119 364.257 454.102 364.633C457.163 364.977 460.178 365.654 463.092 366.653V366.653Z" fill="#37474F"/>
<path d="M457.824 353.939C456.477 356.713 454.834 359.332 452.925 361.754C451.091 364.135 449.103 366.394 446.972 368.514C444.848 370.646 442.59 372.641 440.212 374.485C437.784 376.394 435.159 378.036 432.38 379.384C433.727 376.605 435.37 373.979 437.279 371.552C439.123 369.173 441.117 366.915 443.249 364.791C445.378 362.67 447.636 360.681 450.01 358.839C452.434 356.933 455.053 355.291 457.824 353.939V353.939Z" fill="#37474F"/>
<path d="M457.824 379.384C455.053 378.032 452.434 376.39 450.01 374.484C447.631 372.641 445.373 370.646 443.25 368.514C441.1 366.39 439.094 364.126 437.244 361.736C435.335 359.309 433.692 356.683 432.345 353.904C435.127 355.245 437.753 356.888 440.177 358.803C444.942 362.486 449.214 366.764 452.89 371.534C454.813 373.965 456.468 376.597 457.824 379.384V379.384Z" fill="#37474F"/>
<path d="M515.246 348.671C516.254 351.585 516.943 354.6 517.3 357.662C517.676 360.644 517.87 363.647 517.88 366.653C517.885 369.665 517.697 372.673 517.318 375.661C516.944 378.722 516.249 381.736 515.246 384.652C514.225 381.741 513.53 378.725 513.173 375.661C512.785 372.674 512.597 369.665 512.612 366.653C512.607 363.647 512.794 360.644 513.173 357.662C513.537 354.599 514.232 351.585 515.246 348.671V348.671Z" fill="#37474F"/>
<path d="M533.227 366.653C530.316 367.675 527.301 368.37 524.236 368.725C521.254 369.104 518.251 369.292 515.246 369.287C512.234 369.301 509.224 369.113 506.237 368.725C503.173 368.368 500.158 367.673 497.247 366.653C500.163 365.649 503.176 364.955 506.237 364.581C509.225 364.201 512.234 364.013 515.246 364.019C518.251 364.029 521.254 364.222 524.236 364.598C527.299 364.956 530.313 365.644 533.227 366.653V366.653Z" fill="#37474F"/>
<path d="M527.959 353.939C526.611 356.713 524.969 359.332 523.06 361.754C521.226 364.135 519.237 366.394 517.107 368.514C514.983 370.646 512.725 372.641 510.346 374.485C507.919 376.394 505.293 378.036 502.515 379.384C503.862 376.605 505.504 373.979 507.414 371.552C509.258 369.173 511.252 366.915 513.384 364.791C515.505 362.661 517.763 360.672 520.145 358.839C522.566 356.929 525.186 355.287 527.959 353.939Z" fill="#37474F"/>
<path d="M527.959 379.384C525.186 378.036 522.566 376.394 520.145 374.484C517.759 372.65 515.5 370.655 513.384 368.514C511.271 366.387 509.3 364.122 507.484 361.736C505.575 359.309 503.932 356.683 502.585 353.904C505.367 355.245 507.993 356.888 510.417 358.803C515.182 362.486 519.454 366.764 523.13 371.534C525.017 373.97 526.636 376.601 527.959 379.384V379.384Z" fill="#37474F"/>
<path d="M585.363 348.671C586.385 351.582 587.08 354.598 587.435 357.662C587.814 360.644 588.001 363.647 587.997 366.653C588.011 369.665 587.823 372.674 587.435 375.661C587.078 378.725 586.383 381.741 585.363 384.652C584.356 381.738 583.667 378.723 583.308 375.661C582.923 372.674 582.729 369.665 582.729 366.653C582.738 363.647 582.932 360.644 583.308 357.662C583.665 354.6 584.354 351.585 585.363 348.671V348.671Z" fill="#37474F"/>
<path d="M603.362 366.653C600.45 367.673 597.435 368.368 594.371 368.725C591.383 369.104 588.374 369.292 585.363 369.287C582.357 369.3 579.353 369.113 576.372 368.725C573.307 368.37 570.292 367.675 567.381 366.653C570.297 365.647 573.31 364.953 576.372 364.581C579.354 364.202 582.357 364.014 585.363 364.019C588.374 364.028 591.383 364.222 594.371 364.598C597.433 364.957 600.447 365.646 603.362 366.653V366.653Z" fill="#37474F"/>
<path d="M598.094 353.939C596.746 356.713 595.104 359.332 593.194 361.754C591.361 364.135 589.372 366.394 587.242 368.514C585.118 370.646 582.86 372.641 580.481 374.485C578.054 376.394 575.428 378.036 572.649 379.384C573.99 376.602 575.633 373.975 577.548 371.552C579.391 369.178 581.379 366.92 583.501 364.791C585.632 362.665 587.896 360.677 590.279 358.839C592.701 356.929 595.32 355.287 598.094 353.939Z" fill="#37474F"/>
<path d="M598.094 379.384C595.32 378.036 592.701 376.394 590.279 374.484C587.891 372.645 585.627 370.651 583.501 368.514C581.374 366.384 579.386 364.12 577.548 361.736C575.633 359.313 573.99 356.686 572.649 353.904C575.431 355.245 578.058 356.888 580.481 358.803C585.246 362.486 589.519 366.764 593.194 371.534C595.106 373.967 596.748 376.598 598.094 379.384V379.384Z" fill="#37474F"/>
<path d="M655.497 348.671C656.511 351.585 657.206 354.599 657.569 357.662C658.319 363.638 658.319 369.685 657.569 375.661C657.212 378.725 656.518 381.741 655.497 384.652C654.485 381.738 653.79 378.724 653.425 375.661C653.046 372.673 652.858 369.665 652.863 366.653C652.873 363.647 653.067 360.644 653.443 357.662C653.8 354.6 654.489 351.585 655.497 348.671V348.671Z" fill="#37474F"/>
<path d="M673.496 366.653C670.585 367.673 667.57 368.368 664.506 368.725C661.518 369.104 658.509 369.292 655.497 369.287C652.491 369.3 649.488 369.113 646.507 368.725C643.442 368.37 640.427 367.675 637.516 366.653C640.431 365.647 643.445 364.953 646.507 364.581C649.488 364.202 652.491 364.014 655.497 364.019C658.509 364.028 661.517 364.222 664.506 364.598C667.568 364.957 670.582 365.646 673.496 366.653V366.653Z" fill="#37474F"/>
<path d="M668.228 353.939C666.881 356.713 665.238 359.332 663.329 361.754C661.489 364.135 659.495 366.394 657.359 368.514C655.243 370.655 652.984 372.65 650.598 374.485C648.177 376.394 645.557 378.036 642.784 379.384C644.118 376.598 645.761 373.971 647.683 371.552C649.521 369.174 651.509 366.915 653.636 364.791C655.764 362.67 658.022 360.681 660.396 358.839C662.826 356.933 665.452 355.291 668.228 353.939V353.939Z" fill="#37474F"/>
<path d="M668.228 379.384C665.452 378.032 662.826 376.39 660.396 374.485C658.018 372.641 655.76 370.646 653.636 368.514C651.505 366.4 649.516 364.148 647.683 361.771C645.761 359.352 644.118 356.725 642.784 353.939C645.561 355.28 648.181 356.923 650.598 358.839C652.984 360.667 655.243 362.656 657.359 364.791C659.491 366.922 661.485 369.186 663.329 371.57C665.238 373.991 666.881 376.611 668.228 379.384V379.384Z" fill="#37474F"/>
<path d="M725.632 348.671C726.637 351.587 727.332 354.601 727.704 357.662C728.453 363.638 728.453 369.685 727.704 375.661C727.347 378.725 726.652 381.741 725.632 384.652C724.62 381.738 723.925 378.724 723.56 375.661C722.799 369.686 722.799 363.638 723.56 357.662C723.923 354.599 724.618 351.584 725.632 348.671V348.671Z" fill="#37474F"/>
<path d="M743.631 366.653C740.714 367.675 737.693 368.37 734.623 368.725C731.641 369.105 728.638 369.293 725.632 369.287C722.626 369.301 719.622 369.113 716.641 368.725C713.582 368.371 710.573 367.676 707.668 366.653C710.583 365.645 713.597 364.951 716.659 364.581C719.64 364.201 722.644 364.014 725.649 364.019C728.655 364.028 731.658 364.221 734.64 364.598C737.702 364.957 740.717 365.646 743.631 366.653V366.653Z" fill="#37474F"/>
<path d="M738.363 353.939C737.016 356.717 735.367 359.337 733.446 361.754C729.758 366.513 725.487 370.79 720.733 374.485C718.312 376.394 715.692 378.036 712.918 379.384C714.253 376.598 715.896 373.971 717.818 371.552C719.656 369.174 721.644 366.915 723.771 364.791C725.899 362.67 728.157 360.681 730.531 358.839C732.958 356.929 735.584 355.287 738.363 353.939V353.939Z" fill="#37474F"/>
<path d="M738.363 379.384C735.584 378.036 732.958 376.394 730.531 374.485C728.153 372.641 725.894 370.646 723.771 368.514C721.64 366.4 719.651 364.148 717.818 361.771C715.896 359.352 714.253 356.725 712.918 353.939C715.695 355.28 718.316 356.923 720.733 358.839C723.118 360.667 725.377 362.656 727.493 364.791C729.624 366.918 731.613 369.182 733.446 371.57C735.367 373.986 737.016 376.606 738.363 379.384V379.384Z" fill="#37474F"/>
<path d="M795.767 348.671C796.775 351.585 797.464 354.6 797.821 357.662C798.582 363.638 798.582 369.686 797.821 375.661C797.456 378.724 796.761 381.738 795.749 384.652C794.729 381.741 794.034 378.725 793.677 375.661C792.928 369.685 792.928 363.638 793.677 357.662C794.054 354.6 794.755 351.586 795.767 348.671V348.671Z" fill="#37474F"/>
<path d="M813.748 366.653C810.838 367.677 807.822 368.372 804.757 368.725C801.775 369.104 798.772 369.292 795.767 369.287C792.76 369.301 789.757 369.114 786.776 368.725C783.706 368.37 780.684 367.675 777.768 366.653C780.689 365.647 783.708 364.952 786.776 364.581C789.757 364.201 792.761 364.013 795.767 364.019C798.772 364.028 801.775 364.222 804.757 364.598C807.82 364.954 810.835 365.643 813.748 366.653V366.653Z" fill="#37474F"/>
<path d="M808.48 353.939C807.146 356.72 805.502 359.341 803.581 361.754C801.752 364.139 799.763 366.398 797.628 368.514C795.504 370.646 793.246 372.641 790.867 374.485C788.444 376.39 785.824 378.032 783.053 379.384C784.388 376.602 786.025 373.976 787.935 371.552C791.629 366.798 795.907 362.527 800.666 358.839C803.089 356.933 805.709 355.291 808.48 353.939V353.939Z" fill="#37474F"/>
<path d="M808.48 379.384C805.709 378.032 803.089 376.39 800.666 374.485C795.917 370.784 791.642 366.514 787.935 361.771C786.025 359.348 784.388 356.721 783.053 353.939C785.828 355.284 788.448 356.927 790.867 358.839C793.246 360.676 795.504 362.665 797.628 364.791C799.759 366.918 801.748 369.182 803.581 371.57C805.502 373.982 807.146 376.603 808.48 379.384V379.384Z" fill="#37474F"/>
<path d="M747.125 350.779V446.41H720.1V350.779C720.1 314.412 692.479 284.841 658.5 284.841C624.521 284.841 596.9 314.412 596.9 350.779V446.41H569.875V350.779C569.875 298.696 609.631 256.376 658.5 256.376C707.37 256.376 747.125 298.696 747.125 350.779Z" fill="#455A64"/>
<path d="M569.875 375.644L596.9 376.732V446.41H569.875V375.644Z" fill="#263238"/>
<path d="M747.125 382.861V446.41H720.1V381.754L747.125 382.861Z" fill="#263238"/>
<path d="M781.771 391.957H535.246V615.618H781.771V391.957Z" fill="#FAA286"/>
<path opacity="0.1" d="M781.754 391.957H658.5V615.618H781.754V391.957Z" fill="black"/>
<path d="M668.931 511.979L679.238 560.919H635.444L645.769 511.979C641.732 509.463 638.623 505.701 636.914 501.261C635.205 496.822 634.989 491.946 636.297 487.372C637.606 482.799 640.368 478.775 644.166 475.911C647.965 473.047 652.593 471.498 657.35 471.498C662.107 471.498 666.735 473.047 670.533 475.911C674.332 478.775 677.094 482.799 678.403 487.372C679.711 491.946 679.494 496.822 677.785 501.261C676.076 505.701 672.968 509.463 668.931 511.979Z" fill="#263238"/>
<path d="M586.89 511.892C586.89 511.892 574.001 615.074 552.824 638.324C527.397 666.174 508.924 662.1 498.669 676.464C488.414 662.082 469.958 666.174 444.496 638.306C423.319 615.074 410.447 511.874 410.447 511.874C466.253 484.797 498.704 454.435 498.704 454.435C499.67 455.384 531.945 485.236 586.89 511.892Z" fill="#EBEBEB"/>
<path d="M498.704 454.453V676.446C488.449 662.065 469.993 666.156 444.531 638.288C423.354 615.057 410.483 511.856 410.483 511.856C466.253 484.797 498.704 454.435 498.704 454.435V454.453Z" fill="#DBDBDB"/>
<path d="M573.211 520.215C573.211 520.215 562.324 607.365 544.43 626.997C522.919 650.563 507.326 647.104 498.651 659.238C489.977 647.104 474.383 650.563 452.89 626.997C434.996 607.365 424.127 520.215 424.127 520.215C471.275 497.387 498.651 471.662 498.651 471.662C498.651 471.662 526.062 497.317 573.211 520.215Z" fill="#DBDBDB"/>
<path d="M424.144 520.215C424.144 520.215 435.031 607.365 452.925 626.997C474.401 650.545 489.924 647.104 498.704 659.202V471.697C497.844 472.469 470.608 497.668 424.144 520.215Z" fill="#C7C7C7"/>
<path d="M523.105 589.888C536.6 576.392 536.6 554.511 523.105 541.016C509.609 527.52 487.728 527.52 474.232 541.015C460.736 554.511 460.736 576.392 474.232 589.888C487.728 603.384 509.609 603.384 523.105 589.888Z" fill="#FAA286"/>
<path d="M494.735 587.909L479.335 571.894L485.042 566.398L493.524 575.231L511.821 547.17L518.459 551.489L494.735 587.909Z" fill="white"/>
<path d="M379.449 684.755L383.548 663.763L628.76 711.65C630.999 712.087 632.974 713.396 634.248 715.289C635.522 717.182 635.993 719.504 635.555 721.744L634.754 725.846C634.317 728.085 633.008 730.059 631.115 731.334C629.222 732.608 626.9 733.079 624.66 732.641L379.449 684.755V684.755Z" fill="#FAA286"/>
<path opacity="0.1" d="M383.53 663.741L379.427 684.75L409.036 690.532L413.138 669.523L383.53 663.741Z" fill="black"/>
<path d="M289.74 636.971L282.523 674.304C281.302 680.563 281.325 687 282.592 693.25C283.859 699.499 286.345 705.438 289.907 710.727C293.469 716.015 298.038 720.551 303.353 724.074C308.667 727.597 314.624 730.039 320.883 731.26C327.141 732.481 333.579 732.457 339.828 731.19C346.078 729.923 352.016 727.438 357.305 723.876C362.594 720.314 367.129 715.745 370.653 710.43C374.176 705.115 376.617 699.159 377.839 692.9L385.108 655.655C387.586 643.009 384.938 629.896 377.748 619.201C370.557 608.507 359.413 601.107 346.766 598.629C334.119 596.152 321.007 598.799 310.312 605.99C299.618 613.18 292.218 624.325 289.74 636.971ZM369.796 646.296C367.636 657.376 357.961 665.366 346.002 667.28C356.363 673.584 362.333 684.594 360.156 695.675C357.276 710.495 340.927 719.802 323.666 716.43C306.404 713.059 294.797 698.291 297.695 683.488C299.855 672.408 309.53 664.418 321.506 662.416C311.128 656.147 305.175 645.102 307.335 634.021C310.233 619.183 326.546 609.912 343.79 613.283C361.034 616.655 372.764 631.475 369.866 646.296H369.796Z" fill="#FAA286"/>
<path d="M385.372 654.279L377.573 694.211C377.153 696.363 378.556 698.447 380.708 698.867L382.603 699.237C384.755 699.657 386.839 698.254 387.259 696.103L395.057 656.171C395.477 654.02 394.074 651.935 391.923 651.515L390.027 651.145C387.876 650.725 385.792 652.128 385.372 654.279Z" fill="#FAA286"/>
<path d="M395.058 656.174L387.26 696.106C386.839 698.258 388.243 700.342 390.394 700.762L392.29 701.132C394.441 701.552 396.525 700.149 396.945 697.998L404.743 658.066C405.164 655.915 403.76 653.83 401.609 653.41L399.713 653.04C397.562 652.62 395.478 654.023 395.058 656.174Z" fill="#FAA286"/>
<path d="M570.156 691.197L577.461 692.619L581.587 671.407L587.839 672.618L585.679 683.681L592.966 685.103L595.126 674.041L600.657 675.112L597.233 692.602L604.538 694.041L607.962 676.552L615.794 678.079L611.246 701.434L618.551 702.857L623.117 679.502L630.527 680.959L624.697 710.811L559.444 698.063L565.256 668.211L574.282 669.967L570.156 691.197Z" fill="#FAA286"/>
<path d="M821.808 581.851L773.957 620.483C764.773 627.823 756.854 634.425 753.078 638.236C752.103 639.037 751.317 640.045 750.778 641.186C750.778 641.186 750.778 641.186 750.778 641.291C751.111 645.488 807.655 720.592 810.482 722.541C813.309 724.491 819.139 716.518 819.262 711.865C819.385 707.212 810.605 668.755 810.605 668.755L858.017 629.667L821.808 581.851Z" fill="#C95F50"/>
<path d="M783.72 612.598L773.904 620.518C764.72 627.858 756.801 634.46 753.025 638.271C752.145 639.16 751.372 640.15 750.725 641.221C750.725 641.221 750.725 641.221 750.725 641.326C751.059 645.523 807.602 720.627 810.429 722.576C813.256 724.526 819.086 716.553 819.209 711.9C819.332 707.247 810.552 668.79 810.552 668.79L820.631 660.871L783.72 612.598Z" fill="#EBEBEB"/>
<path d="M810.376 722.629C807.514 720.68 750.989 645.593 750.672 641.361C750.514 639.763 760.98 630.825 773.922 620.535L774.343 620.202L811.272 668.246L810.447 668.843C810.447 668.843 819.227 707.264 819.104 711.953C818.981 716.641 813.221 724.596 810.376 722.629Z" fill="#FAA286"/>
<path d="M812.642 719.591C803.423 706.702 765.037 655.585 754.94 643.539C754.94 643.434 754.799 643.539 754.94 643.539C763.72 656.516 802.597 707.334 812.519 719.697C812.659 719.96 812.852 719.96 812.642 719.591Z" fill="#263238"/>
<path d="M813.414 673.022C810.587 667.35 805.249 661.819 798.822 660.73C798.576 660.73 798.523 661.029 798.699 661.169C803.809 664.751 808.518 668.872 812.747 673.461C812.812 673.533 812.9 673.579 812.996 673.592C813.092 673.604 813.189 673.582 813.27 673.529C813.35 673.476 813.409 673.395 813.436 673.302C813.462 673.209 813.455 673.11 813.414 673.022V673.022Z" fill="#263238"/>
<path d="M813.959 678.255C811.132 672.566 805.776 667.052 799.366 665.963C799.12 665.963 799.068 666.279 799.226 666.402C804.334 669.986 809.044 674.106 813.274 678.694C813.303 678.739 813.34 678.778 813.384 678.808C813.428 678.839 813.477 678.86 813.529 678.872C813.582 678.883 813.635 678.884 813.688 678.875C813.741 678.865 813.791 678.846 813.836 678.817C813.881 678.788 813.92 678.751 813.95 678.707C813.981 678.663 814.002 678.614 814.014 678.561C814.025 678.509 814.026 678.455 814.017 678.403C814.007 678.35 813.988 678.3 813.959 678.255Z" fill="#263238"/>
<path d="M814.485 683.47C811.676 677.798 806.32 672.285 799.911 671.178C799.665 671.178 799.595 671.494 799.77 671.617C804.876 675.205 809.585 679.325 813.818 683.909C813.847 683.953 813.884 683.991 813.928 684.02C813.971 684.05 814.02 684.07 814.071 684.081C814.122 684.092 814.175 684.092 814.227 684.082C814.278 684.072 814.328 684.052 814.371 684.024C814.415 683.995 814.453 683.957 814.482 683.914C814.512 683.871 814.532 683.822 814.543 683.771C814.554 683.719 814.554 683.666 814.544 683.615C814.534 683.563 814.514 683.514 814.485 683.47V683.47Z" fill="#263238"/>
<path d="M847.621 535.808C844.232 552.543 774.817 619.289 774.817 619.289L823.213 675.147C823.213 675.147 921.759 576.811 916.614 539.812C912.137 507.66 863.934 378.365 863.934 378.365H808.48C808.48 378.365 850.94 519.355 847.621 535.808Z" fill="#37474F"/>
<path d="M847.621 535.808C844.232 552.543 774.817 619.289 774.817 619.289L823.213 675.147C823.213 675.147 921.759 576.811 916.614 539.812C912.137 507.66 863.934 378.365 863.934 378.365H808.48C808.48 378.365 850.94 519.355 847.621 535.808Z" fill="#37474F"/>
<path d="M828.709 661.872C822.282 653.864 824.249 656.077 817.734 648.14C814.538 644.259 793.554 618.779 789.937 615.671C789.937 615.671 789.726 615.671 789.779 615.812C792.202 619.903 813.625 645.014 816.891 648.842C823.564 656.639 821.738 654.338 828.481 662.065C828.621 662.205 828.832 662.012 828.709 661.872Z" fill="#263238"/>
<path d="M854.522 527.66C853.715 523.481 852.766 519.319 851.941 515.158C850.126 506.659 848.212 498.189 846.199 489.748C842.195 472.996 837.846 456.338 833.152 439.773C828.428 423.161 823.424 406.567 817.646 390.271C816.944 388.252 816.206 386.25 815.469 384.248C815.469 384.215 815.456 384.184 815.433 384.161C815.41 384.138 815.379 384.125 815.346 384.125C815.313 384.125 815.282 384.138 815.259 384.161C815.236 384.184 815.223 384.215 815.223 384.248C820.228 400.579 825.373 416.857 830.044 433.258C834.715 449.659 839.017 466.06 843.091 482.566C845.128 490.855 847.024 499.178 848.886 507.502C849.799 511.593 850.642 515.702 851.555 519.794C852.639 523.958 853.419 528.195 853.89 532.472C854.017 536.524 852.875 540.514 850.624 543.886C848.534 547.292 846.094 550.488 843.723 553.702C838.982 560.129 793.782 610.508 792.325 611.878C792.202 611.983 792.325 612.142 792.5 612.036C798.559 606.593 836.91 565.081 841.774 558.654C844.197 555.475 846.533 552.262 848.798 548.996C851.104 546.048 852.962 542.776 854.312 539.285C855.378 535.492 855.451 531.489 854.522 527.66V527.66Z" fill="#263238"/>
<path d="M854.399 378.365L844.32 510.68C834.697 465.393 808.48 378.365 808.48 378.365H854.399Z" fill="#263238"/>
<path d="M945.571 743.087C942.287 744.14 848.289 742.683 844.759 740.365C844.186 739.243 843.874 738.007 843.846 736.747C843.838 736.713 843.838 736.677 843.846 736.642C843.161 731.374 842.827 721.049 842.652 709.284L840.58 699.116H900.828L903.181 710.039C903.181 710.039 938.916 726.703 942.551 729.671C946.186 732.638 948.89 742.051 945.571 743.087Z" fill="#EBEBEB"/>
<path d="M945.571 743.087C942.27 744.14 848.288 742.683 844.759 740.365C843.389 739.504 842.81 725.79 842.581 709.213V708.687L903.216 708.95V709.986C903.216 709.986 938.933 726.633 942.551 729.6C946.168 732.568 948.872 742.051 945.571 743.087Z" fill="#FAA286"/>
<path d="M944.57 739.434C928.766 738.802 864.795 737.678 849.096 738.31C848.973 738.31 848.973 738.398 849.096 738.416C864.777 739.381 928.713 739.926 944.57 739.697C944.904 739.68 944.904 739.452 944.57 739.434Z" fill="#263238"/>
<path d="M908.273 710.249C902.057 708.985 894.419 709.828 889.572 714.2C889.396 714.358 889.572 714.622 889.835 714.569C895.826 712.741 901.996 711.563 908.238 711.057C908.291 711.059 908.344 711.051 908.394 711.033C908.444 711.015 908.49 710.987 908.529 710.951C908.568 710.915 908.6 710.872 908.622 710.824C908.645 710.776 908.658 710.724 908.66 710.671C908.662 710.618 908.654 710.565 908.636 710.515C908.618 710.465 908.59 710.419 908.554 710.38C908.518 710.341 908.475 710.309 908.427 710.287C908.379 710.264 908.327 710.252 908.273 710.249V710.249Z" fill="#263238"/>
<path d="M912.716 713.024C906.517 711.76 898.861 712.602 894.032 716.975C893.857 717.15 894.032 717.414 894.296 717.344C900.28 715.517 906.444 714.34 912.681 713.832C912.788 713.836 912.893 713.798 912.972 713.726C913.051 713.653 913.098 713.552 913.102 713.445C913.107 713.338 913.069 713.234 912.997 713.155C912.924 713.076 912.823 713.028 912.716 713.024V713.024Z" fill="#263238"/>
<path d="M917.176 715.816C910.96 714.552 903.322 715.394 898.493 719.749C898.299 719.925 898.493 720.188 898.756 720.136C904.743 718.318 910.906 717.14 917.141 716.624C917.194 716.626 917.247 716.618 917.297 716.6C917.347 716.581 917.393 716.554 917.432 716.518C917.471 716.482 917.503 716.439 917.525 716.391C917.548 716.342 917.56 716.29 917.563 716.237C917.565 716.184 917.557 716.131 917.539 716.081C917.52 716.032 917.493 715.986 917.457 715.947C917.421 715.907 917.378 715.876 917.33 715.853C917.281 715.831 917.229 715.818 917.176 715.816V715.816Z" fill="#263238"/>
<path d="M858.684 378.365C856.522 387.495 854.927 396.749 853.908 406.075C852.766 417.7 851.309 427.99 849.764 429.272C848.218 430.554 839.228 436.296 836.277 438.052C836.277 438.052 863.636 521.005 870.695 548.68C880.933 588.752 905.446 709.02 905.446 709.02H840.123C840.123 709.02 820.263 594.547 811.571 556.371C804.125 523.657 775.608 425.514 775.608 425.514C772.599 417.947 771.247 409.823 771.644 401.69C772.041 393.557 774.177 385.603 777.908 378.365C777.908 378.365 858.684 378.33 858.684 378.365Z" fill="#37474F"/>
<path d="M903.058 696.377C892.786 696.377 895.736 696.201 885.498 696.254C880.476 696.254 847.463 696.5 842.792 697.36C842.764 697.36 842.737 697.371 842.718 697.391C842.698 697.411 842.687 697.438 842.687 697.466C842.687 697.494 842.698 697.52 842.718 697.54C842.737 697.56 842.764 697.571 842.792 697.571C847.498 698.273 880.494 697.466 885.516 697.343C895.788 697.079 892.838 697.044 903.076 696.675C903.106 696.663 903.132 696.641 903.15 696.613C903.167 696.585 903.176 696.553 903.174 696.52C903.172 696.487 903.159 696.456 903.139 696.43C903.118 696.404 903.09 696.386 903.058 696.377V696.377Z" fill="#263238"/>
<path d="M854.347 425.988C848.003 429.48 841.975 433.516 836.33 438.052C836.296 438.089 836.275 438.138 836.271 438.188C836.267 438.239 836.28 438.29 836.309 438.332C836.337 438.375 836.379 438.407 836.427 438.423C836.476 438.439 836.528 438.438 836.576 438.421C842.687 434.592 848.868 430.87 854.821 426.708C854.894 426.637 854.94 426.542 854.951 426.441C854.962 426.34 854.937 426.238 854.881 426.152C854.825 426.067 854.741 426.004 854.643 425.974C854.546 425.944 854.441 425.949 854.347 425.988Z" fill="#263238"/>
<path d="M849.36 380.859C849.36 380.631 848.903 380.648 848.938 380.859C850.076 388.161 850.843 395.517 851.239 402.897C851.467 406.303 851.642 425.356 845.584 424.899C844.566 424.899 843.828 423.951 843.53 422.494C843.257 420.562 843.222 418.604 843.424 416.664C843.424 412.66 843.424 408.674 843.108 404.67C842.642 397.277 841.418 389.951 839.456 382.808C839.456 382.757 839.435 382.708 839.399 382.671C839.363 382.635 839.314 382.615 839.263 382.615C839.211 382.615 839.162 382.635 839.126 382.671C839.09 382.708 839.069 382.757 839.069 382.808C840.823 392.951 841.809 403.212 842.02 413.503C842.02 418.472 840.738 426.146 845.918 426.093C851.098 426.041 852.643 413.31 852.749 409.886C852.88 400.104 851.741 390.347 849.36 380.859V380.859Z" fill="#263238"/>
<path d="M845.813 425.426C845.49 426.762 845.256 428.117 845.11 429.482C844.917 430.563 844.917 431.668 845.11 432.749C845.127 432.79 845.157 432.826 845.194 432.851C845.232 432.876 845.276 432.889 845.321 432.889C845.366 432.889 845.41 432.876 845.447 432.851C845.485 432.826 845.514 432.79 845.532 432.749C846.002 431.703 846.298 430.588 846.41 429.447C846.673 428.183 846.954 426.936 847.182 425.654C847.212 425.473 847.169 425.287 847.062 425.137C846.955 424.987 846.793 424.886 846.611 424.855C846.43 424.825 846.244 424.868 846.094 424.975C845.944 425.082 845.843 425.244 845.813 425.426V425.426Z" fill="#263238"/>
<path d="M784.932 425.092C790.559 424.78 796.12 423.729 801.474 421.967C807.551 420.024 813.061 416.624 817.523 412.063C820.048 409.556 822.132 406.641 823.687 403.441C823.687 403.318 823.933 403.441 823.898 403.546C822.944 406.646 821.471 409.561 819.543 412.168C817.547 414.751 815.18 417.023 812.519 418.911C807.251 422.774 801.051 425.167 794.555 425.848C791.351 426.345 788.085 426.298 784.897 425.707C784.388 425.637 784.528 425.128 784.932 425.092Z" fill="#263238"/>
<path d="M832.484 660.379C832.326 658.869 832.116 657.359 831.905 655.848C831.501 652.969 831.009 650.071 830.553 647.191C829.675 641.379 828.674 635.584 827.638 629.807C825.601 618.27 823.23 606.768 820.737 595.319C819.315 588.857 817.681 582.465 815.943 576.003C815.838 575.547 815.205 575.775 815.276 576.196C816.329 582.061 817.348 587.909 818.542 593.756C819.736 599.604 820.93 605.363 822.054 611.176C824.337 622.66 826.461 634.197 828.744 645.681C829.376 648.93 829.973 652.178 830.606 655.427C830.922 657.043 831.238 658.676 831.589 660.274C831.94 661.872 832.432 663.47 832.695 665.085C832.695 665.243 832.959 665.173 832.941 665.085C832.695 663.522 832.678 662.012 832.484 660.379Z" fill="#263238"/>
<path d="M877.543 573.58C875.366 562.745 872.433 552.051 869.483 541.392C863.548 519.969 856.559 498.845 849.588 477.72C847.574 471.644 845.561 465.562 843.547 459.475C842.546 456.437 837.63 440.019 837.015 438.403C837.005 438.376 836.987 438.353 836.963 438.337C836.94 438.32 836.912 438.311 836.883 438.311C836.855 438.311 836.827 438.32 836.803 438.337C836.779 438.353 836.762 438.376 836.752 438.403C838.174 443.987 840.105 452.135 841.739 457.719C843.372 463.303 845.11 468.624 846.813 474.05C850.15 484.744 853.539 495.438 856.77 506.149C863.179 527.344 869.536 548.539 874.734 570.068C876.191 576.109 877.649 582.132 878.966 588.19C880.283 594.248 881.442 600.324 882.706 606.382C882.706 606.558 883.022 606.505 883.005 606.382C881.916 595.389 879.756 584.467 877.543 573.58Z" fill="#263238"/>
<path d="M836.927 630.281C833.327 609.613 829.025 589.05 824.249 568.61C819.473 548.17 814.117 527.66 808.234 507.414C802.352 487.167 795.837 467.026 788.918 447.183C785.394 437.821 782.433 428.257 780.05 418.543C777.89 408.885 776.802 398.436 779.049 388.691C779.598 386.217 780.344 383.792 781.28 381.438C781.28 381.28 781.104 381.14 781.034 381.298C773.184 399.613 778.277 419.631 784.265 437.683C787.531 447.569 791.025 457.385 794.274 467.289C797.523 477.193 800.754 487.659 803.809 497.914C809.832 518.231 815.434 538.671 820.438 559.251C825.443 579.831 829.921 600.552 833.854 621.378C837.788 642.204 841.106 663.259 844.478 684.243C844.917 686.982 845.251 689.722 845.619 692.461C845.619 692.619 845.865 692.619 845.848 692.461C843.249 671.652 840.509 650.932 836.927 630.281Z" fill="#263238"/>
<path d="M835.593 291.637C843.284 319.733 865.445 353.623 875.981 358.365C885.147 362.438 927.677 346.705 943.727 336.485C948.293 333.57 929.416 307.282 923.919 309.109C905.956 315.097 886.411 323.947 884.901 323.438C881.846 322.402 862.776 299.012 848.886 283.278C833.31 265.595 832.537 280.451 835.593 291.637Z" fill="#C95F50"/>
<path d="M974.053 312.656C977.671 311.146 1005.5 310.268 1005.5 304.227C1005.5 298.186 970.067 299.872 970.067 299.872L974.053 312.656Z" fill="#C95F50"/>
<path d="M920.671 313.358C925.535 307.318 929.82 300.803 934.052 299.609C936.966 298.783 968.487 300.136 973.404 299.837C978.32 299.539 995.898 299.995 996.232 304.315C996.811 310.408 976.02 310.356 973.807 313.481C966.134 324.245 936.931 340.172 936.931 340.172L920.671 313.358Z" fill="#C95F50"/>
<path d="M996.776 304.403C996.454 303.281 995.736 302.314 994.756 301.681C992.455 300.422 989.864 299.786 987.241 299.837C983.398 299.492 979.534 299.462 975.686 299.749C975.686 299.749 975.686 299.872 975.686 299.89C978.584 299.89 981.446 299.89 984.326 300.206C986.967 300.304 989.589 300.705 992.14 301.4C993.285 301.695 994.325 302.303 995.143 303.156C995.425 303.477 995.62 303.865 995.71 304.283C995.799 304.702 995.779 305.136 995.652 305.544C994.827 308.196 989.576 309.056 987.153 309.53C983.992 310.233 980.708 310.847 977.53 311.497C977.39 311.497 977.53 311.743 977.53 311.708C980.831 311.058 984.308 310.812 987.627 310.215C990.398 309.944 993.056 308.978 995.353 307.405C995.853 307.094 996.253 306.645 996.505 306.113C996.758 305.58 996.851 304.987 996.776 304.403Z" fill="#263238"/>
<path d="M919.459 309.636L944.394 346.143C944.394 346.143 905.762 365.459 890.977 365.16C876.929 364.827 871.819 362.755 867.376 358.558C864.619 355.959 848.973 333.851 836.207 297.098C825.496 266.297 841.352 270.758 855.523 287.896C862.547 296.395 885.094 321.734 886.218 321.647C887.342 321.559 919.459 309.636 919.459 309.636Z" fill="#FAA286"/>
<path d="M911.785 315.571C915.526 320.979 919.108 326.493 922.637 332.042C924.393 334.746 930.856 345.809 932.734 348.952C932.734 349.075 932.471 349.286 932.383 349.163C930.434 346.389 923.393 335.343 921.689 332.604C918.177 327.002 914.858 321.383 911.627 315.676C911.621 315.666 911.616 315.654 911.613 315.642C911.611 315.63 911.611 315.617 911.613 315.605C911.616 315.593 911.621 315.581 911.628 315.571C911.634 315.56 911.643 315.551 911.654 315.545C911.664 315.538 911.676 315.533 911.688 315.53C911.7 315.528 911.713 315.528 911.725 315.53C911.737 315.533 911.749 315.538 911.759 315.545C911.77 315.552 911.778 315.56 911.785 315.571Z" fill="#263238"/>
<path opacity="0.1" d="M898.457 364.23C896.009 364.832 893.498 365.144 890.977 365.16C876.929 364.827 871.819 362.755 867.376 358.558C864.637 355.959 848.973 333.868 836.225 297.098C834.222 292.007 833.036 286.632 832.713 281.171C832.713 280.837 832.713 280.486 832.713 280.17C832.695 279.86 832.695 279.549 832.713 279.239C832.741 278.986 832.782 278.734 832.836 278.484C833.015 277.338 833.556 276.279 834.381 275.464C843.108 287.159 884.023 342.42 898.457 364.23Z" fill="black"/>
<path d="M989.998 294.657H895.455V299.732H989.998V294.657Z" fill="#C7C7C7"/>
<path d="M989.998 294.657V299.732H932.577L936.457 294.657H989.998Z" fill="#A6A6A6"/>
<path d="M940.637 299.732H1003.87L1036.78 243.856H973.544L940.637 299.732Z" fill="#C7C7C7"/>
<path d="M986.345 271.759C985.169 274.34 986.029 277.027 988.277 277.834C989.535 278.125 990.855 277.953 991.997 277.35C993.138 276.747 994.024 275.753 994.493 274.551C995.67 271.969 994.809 269.283 992.561 268.475C991.304 268.188 989.985 268.362 988.844 268.964C987.704 269.567 986.817 270.558 986.345 271.759V271.759Z" fill="white"/>
<path d="M771.815 397.611C772.043 397.857 870.8 397.155 871.696 396.136C872.925 394.696 849.535 287.931 839.263 274.814C837.068 272.004 829.903 271.302 823.827 272.11C822.244 272.307 820.681 272.641 819.156 273.111H818.998C817.765 273.496 816.607 274.09 815.574 274.867C798.804 288.546 785.055 335.888 781.877 350.094C776.609 373.519 770.989 396.68 771.815 397.611Z" fill="#EBEBEB"/>
<path d="M817.945 273.357C817.945 273.357 824.389 317.257 825.917 328.706C827.445 340.155 825.917 400.263 825.917 400.263L763.948 405.531C763.948 405.531 776.942 365.564 777.065 363.035C777.065 363.035 787.338 315.009 797.944 295.184C802.681 286.35 809.558 278.846 817.945 273.357V273.357Z" fill="#FAA286"/>
<path d="M838.578 274.129C838.578 274.129 846.954 318.591 847.691 322.261C848.429 325.931 859.158 398.19 859.158 398.19L874.664 398.524L866.252 365.511C866.252 365.511 848.253 280.96 838.578 274.129Z" fill="#FAA286"/>
<path d="M835.083 288.335C830.377 288.88 821.457 282.33 818.963 275.394C818.805 274.902 820.21 270.389 821.65 264.858C822.51 261.468 823.406 257.693 823.95 254.181C824.056 253.461 845.128 262.961 845.128 262.961C843.172 267.148 841.739 271.559 840.861 276.096C840.818 276.587 840.818 277.08 840.861 277.571V277.817C840.79 280.644 840.141 287.773 835.083 288.335Z" fill="#C95F50"/>
<path d="M840.79 277.606C840.798 277.688 840.798 277.77 840.79 277.852C840.03 277.825 839.273 277.742 838.525 277.606C825.618 275.271 824.758 258.501 824.741 254.286C828.569 255.463 845.145 263.066 845.145 263.066C843.191 267.26 841.758 271.677 840.878 276.219C840.818 276.679 840.789 277.142 840.79 277.606V277.606Z" fill="#263238"/>
<path d="M824.196 226.173C820.807 233.724 822.107 256.903 827.041 262.645C834.205 270.986 847.358 273.357 854.803 264.401C862.02 255.744 859.808 225.558 854.154 220.185C845.83 212.283 829.183 215.04 824.196 226.173Z" fill="#C95F50"/>
<path d="M841.264 242.591C841.264 242.591 841.142 242.591 841.159 242.732C841.282 244.295 841.159 246.086 839.789 246.683C839.789 246.683 839.789 246.788 839.789 246.771C841.51 246.437 841.633 244.084 841.264 242.591Z" fill="#263238"/>
<path d="M839.789 241.029C837.278 241.029 837.331 246.016 839.667 246.068C842.002 246.121 841.897 241.081 839.789 241.029Z" fill="#263238"/>
<path d="M850.887 242.504C850.887 242.504 851.01 242.591 851.01 242.644C851.01 244.207 851.203 246.016 852.626 246.507C852.626 246.507 852.626 246.613 852.626 246.595C850.887 246.384 850.606 244.084 850.887 242.504Z" fill="#263238"/>
<path d="M852.257 240.871C854.768 240.642 855.032 245.682 852.696 245.893C850.36 246.103 850.15 241.046 852.257 240.871Z" fill="#263238"/>
<path d="M837.77 238.816C838.455 238.623 839.052 238.342 839.719 238.096C840.441 237.945 841.09 237.555 841.563 236.99C841.677 236.786 841.722 236.551 841.691 236.319C841.659 236.088 841.552 235.873 841.387 235.708C841.002 235.432 840.55 235.264 840.077 235.221C839.605 235.177 839.13 235.261 838.701 235.462C837.77 235.75 836.98 236.377 836.488 237.218C836.398 237.411 836.363 237.626 836.389 237.838C836.414 238.049 836.498 238.25 836.632 238.416C836.765 238.583 836.942 238.708 837.144 238.779C837.345 238.85 837.562 238.862 837.77 238.816V238.816Z" fill="#263238"/>
<path d="M854.189 236.621C853.507 236.492 852.833 236.328 852.169 236.129C851.44 236.049 850.756 235.734 850.22 235.234C850.076 235.044 849.998 234.813 849.998 234.575C849.998 234.337 850.076 234.106 850.22 233.917C850.574 233.606 851.004 233.393 851.467 233.301C851.929 233.208 852.407 233.239 852.854 233.39C853.802 233.567 854.652 234.085 855.242 234.847C855.363 235.027 855.43 235.237 855.436 235.453C855.442 235.669 855.387 235.882 855.277 236.068C855.166 236.253 855.005 236.404 854.813 236.502C854.62 236.6 854.404 236.641 854.189 236.621V236.621Z" fill="#263238"/>
<path d="M840.755 257.043C841.124 257.412 841.51 257.904 842.072 257.956C842.682 257.947 843.281 257.803 843.828 257.535C843.828 257.535 843.916 257.535 843.828 257.623C843.605 257.931 843.303 258.173 842.954 258.324C842.605 258.476 842.221 258.531 841.844 258.483C841.525 258.407 841.237 258.238 841.015 257.997C840.793 257.756 840.647 257.455 840.597 257.131C840.58 257.026 840.685 256.991 840.755 257.043Z" fill="#263238"/>
<path d="M842.336 252.355C842.73 252.962 843.246 253.481 843.85 253.88C844.454 254.278 845.134 254.548 845.848 254.673C846.482 254.769 847.127 254.769 847.762 254.673C847.884 254.691 848.008 254.691 848.13 254.673H848.464C848.548 254.657 848.625 254.615 848.682 254.551C848.739 254.487 848.774 254.407 848.78 254.321V254.321C848.789 254.269 848.789 254.216 848.78 254.163V254.163V254.023C848.78 252.811 848.657 250.985 848.657 250.985C849.096 251.196 851.361 252.179 851.309 251.547C851.102 246.123 850.349 240.735 849.061 235.462C849.061 235.425 849.046 235.389 849.02 235.363C848.994 235.336 848.958 235.322 848.921 235.322C848.883 235.322 848.848 235.336 848.821 235.363C848.795 235.389 848.78 235.425 848.78 235.462C848.938 240.467 849.974 245.419 850.22 250.458C849.416 250.096 848.565 249.848 847.691 249.721C847.516 249.721 848.025 253.233 847.972 253.795C846.988 253.908 845.991 253.822 845.04 253.541C844.09 253.261 843.206 252.791 842.441 252.162C842.371 252.126 842.248 252.232 842.336 252.355Z" fill="#263238"/>
<path d="M847.112 254.146C846.46 255.006 845.603 255.688 844.618 256.13C844.06 256.351 843.446 256.394 842.862 256.253C841.616 255.937 841.581 254.796 841.791 253.812C841.912 253.289 842.095 252.782 842.336 252.302C843.691 253.41 845.364 254.056 847.112 254.146Z" fill="#263238"/>
<path d="M844.636 256.13C844.077 256.351 843.464 256.394 842.88 256.253C841.633 255.937 841.598 254.796 841.809 253.812C842.471 253.828 843.109 254.064 843.622 254.484C844.134 254.904 844.491 255.484 844.636 256.13V256.13Z" fill="#FF9BBC"/>
<path d="M822.265 246.209C822.265 246.209 816.663 232.301 818.577 225.137C819.437 221.888 824.302 220.396 824.302 220.396C824.17 218.999 824.429 217.593 825.049 216.334C825.669 215.076 826.626 214.014 827.814 213.266C832.327 210.211 841.668 212.581 841.668 212.581C841.668 212.581 849.254 204.715 857.367 209.649C865.48 214.583 858.21 223.504 858.21 223.504C858.21 223.504 860.668 228.543 852.292 230.809C843.916 233.074 829.218 227.104 829.218 227.104C829.064 232.554 828.099 237.951 826.356 243.118C826.019 243.957 825.461 244.687 824.74 245.232C824.019 245.777 823.163 246.114 822.265 246.209V246.209Z" fill="#263238"/>
<path d="M843.214 212.915C841.398 211.815 839.379 211.093 837.278 210.79C835.412 210.483 833.508 210.483 831.642 210.79C829.975 210.987 828.394 211.631 827.064 212.655C825.735 213.678 824.707 215.042 824.091 216.603C823.825 217.424 823.727 218.29 823.803 219.149C823.878 220.009 824.125 220.845 824.53 221.607C824.53 221.607 824.653 221.607 824.618 221.607C823.02 218.78 824.618 215.092 827.111 213.354C830.016 211.561 833.474 210.887 836.839 211.458C838.998 211.786 841.109 212.375 843.126 213.214C843.145 213.219 843.166 213.221 843.186 213.219C843.207 213.217 843.226 213.211 843.244 213.201C843.262 213.191 843.278 213.178 843.291 213.162C843.304 213.146 843.313 213.128 843.319 213.108C843.325 213.089 843.327 213.068 843.324 213.048C843.322 213.027 843.316 213.008 843.306 212.99C843.297 212.972 843.283 212.956 843.267 212.943C843.252 212.93 843.233 212.921 843.214 212.915V212.915Z" fill="#263238"/>
<path d="M862.951 214.812C862.741 213.594 862.232 212.447 861.469 211.475C860.705 210.504 859.712 209.737 858.579 209.245C856.019 207.973 853.105 207.601 850.308 208.191C847.496 208.792 844.896 210.131 842.775 212.072C842.775 212.072 842.775 212.195 842.775 212.072C844.677 210.367 847.003 209.206 849.509 208.711C852.016 208.217 854.609 208.407 857.016 209.263C858.137 209.564 859.165 210.138 860.01 210.934C860.855 211.73 861.489 212.723 861.856 213.825C862.223 214.926 862.311 216.1 862.113 217.244C861.915 218.388 861.437 219.464 860.721 220.378C859.039 222.521 856.787 224.146 854.224 225.067C854.224 225.067 854.224 225.189 854.224 225.154C856.624 224.428 858.803 223.112 860.563 221.326C861.401 220.472 862.047 219.449 862.459 218.326C862.87 217.203 863.038 216.005 862.951 214.812V214.812Z" fill="#263238"/>
<path d="M827.568 245.612C827.568 245.612 823.213 237.727 819.683 239.22C816.154 240.712 818.893 251.74 822.651 253.619C823.118 253.89 823.635 254.065 824.17 254.132C824.706 254.2 825.25 254.158 825.77 254.011C826.289 253.863 826.774 253.613 827.194 253.274C827.615 252.935 827.963 252.515 828.217 252.039L827.568 245.612Z" fill="#C95F50"/>
<path d="M820.544 242.328C820.544 242.328 820.544 242.328 820.544 242.433C821.737 243.189 822.757 244.189 823.537 245.366C824.318 246.543 824.842 247.871 825.074 249.264C824.943 248.975 824.751 248.716 824.511 248.508C824.271 248.299 823.989 248.144 823.685 248.054C823.38 247.964 823.059 247.941 822.744 247.986C822.429 248.031 822.128 248.144 821.861 248.316C821.861 248.316 821.861 248.492 821.861 248.474C822.361 248.371 822.881 248.425 823.35 248.63C823.818 248.834 824.212 249.178 824.477 249.615C824.899 250.354 825.252 251.13 825.531 251.933C825.636 252.197 826.093 252.109 826.022 251.81C826.461 248.298 824.266 243.118 820.544 242.328Z" fill="#263238"/>
<path d="M805.495 283.471C780.63 311.391 761.928 350.708 762.104 359.98C762.35 370.165 775.309 406.04 787.654 422.898C789.252 425.057 798.875 424.144 806.97 419.666C815.557 414.943 822.598 406.514 820.912 404.003C814.573 394.573 799.559 358.048 799.7 352.341C799.823 347.073 812.132 314.728 816.821 296.027C821.404 278.028 817.067 270.424 805.495 283.471Z" fill="#C95F50"/>
<path d="M772.64 420.105L818.946 397.488C818.946 397.488 800.736 356.854 800.736 352.464C800.736 348.074 812.712 313.727 817.225 297.853C821.738 281.978 819.999 264.138 800.227 288.142C780.454 312.147 763.175 347.846 761.208 357.328C759.242 366.811 772.64 420.105 772.64 420.105Z" fill="#FAA286"/>
<path d="M803.054 340.805C804.002 337.796 804.986 334.793 806.004 331.796C807.145 328.442 808.322 325.106 809.516 321.787C810.71 318.468 812.062 315.378 813.362 312.182C813.362 311.953 813.853 312.182 813.783 312.34C812.238 316.607 810.798 320.927 809.358 325.246C810.447 323.28 811.535 321.331 812.694 319.399C812.718 319.377 812.749 319.362 812.781 319.358C812.814 319.354 812.847 319.36 812.876 319.376C812.905 319.391 812.928 319.415 812.943 319.444C812.958 319.474 812.963 319.507 812.958 319.539C811.658 321.928 810.289 324.263 808.901 326.563C808.568 327.599 808.217 328.653 807.865 329.689C805.916 335.484 804.055 341.314 802.387 347.249C801.972 348.563 801.696 349.917 801.561 351.288C801.49 352.851 801.723 354.414 802.246 355.889C803.089 358.61 804.002 361.297 804.986 363.966C806.917 369.357 809.024 374.66 811.219 379.928C813.73 385.934 816.593 391.851 819.437 397.699C819.437 397.699 817.681 398.155 817.681 398.191C817.681 398.226 817.541 398.191 817.576 398.103C817.611 398.015 818.665 397.523 818.7 397.523C815.802 392.466 813.046 387.497 810.605 382.176C808.164 376.855 806.039 371.64 804.09 366.126C803.089 363.316 802.123 360.507 801.245 357.662C800.249 355.025 799.976 352.169 800.455 349.391C801.105 346.476 802.158 343.632 803.054 340.805Z" fill="#263238"/>
<path d="M771.85 407.058C773.491 406.171 775.179 405.374 776.907 404.67C778.417 403.968 779.91 403.248 781.438 402.563C784.739 401.07 788.04 399.56 791.359 398.085C794.678 396.61 797.979 395.118 801.298 393.678C804.617 392.238 807.883 390.692 811.254 389.446C811.377 389.446 811.465 389.586 811.36 389.656C808.287 391.553 805.003 393.168 801.772 394.731C798.541 396.294 795.363 397.804 792.114 399.262C788.865 400.719 785.459 402.142 782.105 403.494C780.489 404.143 778.856 404.74 777.206 405.355C775.492 406.095 773.733 406.723 771.938 407.234C771.917 407.236 771.895 407.231 771.877 407.221C771.858 407.211 771.843 407.195 771.834 407.176C771.824 407.157 771.821 407.136 771.824 407.115C771.826 407.094 771.836 407.074 771.85 407.058V407.058Z" fill="#263238"/>
</svg>
